<?xml version="1.0" standalone="no"?>
<!DOCTYPE svg PUBLIC "-//W3C//DTD SVG 20010904//EN"
 "http://www.w3.org/TR/2001/REC-SVG-20010904/DTD/svg10.dtd">
<svg version="1.0" xmlns="http://www.w3.org/2000/svg"
 width="700.000000pt" height="700.000000pt" viewBox="0 0 700.000000 700.000000"
 preserveAspectRatio="xMidYMid meet">
<metadata>
Created by potrace 1.11, written by Peter Selinger 2001-2013
</metadata>
<g transform="translate(0.000000,700.000000) scale(0.100000,-0.100000)"
fill="#000000" stroke="none">
<path d="M4417 6205 c-1 -1 -45 -5 -97 -9 -109 -8 -156 -14 -225 -31 -11 -2
-40 -9 -65 -15 -206 -50 -450 -175 -618 -318 -59 -50 -44 -53 -126 21 -115
103 -315 201 -466 228 -30 6 -68 12 -85 15 -16 3 -329 7 -695 8 l-664 2 -27
-26 c-18 -16 -37 -55 -54 -110 -63 -197 -149 -332 -275 -432 -108 -87 -313
-161 -505 -184 -22 -3 -51 -7 -65 -10 -14 -2 -81 -7 -150 -10 -273 -12 -252
-9 -277 -38 l-23 -27 0 -430 c0 -440 2 -461 39 -484 22 -13 -11 -12 471 -14
l440 -1 0 -1679 0 -1680 24 -28 24 -28 692 0 692 0 24 28 24 28 0 2075 c0
1141 2 2074 4 2074 2 0 23 -7 46 -15 90 -32 217 -38 338 -18 46 8 86 13 88 10
3 -2 0 -17 -6 -32 -12 -32 -47 -166 -55 -210 -2 -16 -7 -39 -9 -50 -20 -100
-26 -226 -41 -805 -3 -124 -8 -290 -10 -370 -3 -80 -7 -253 -11 -385 -10 -418
-8 -398 -41 -452 -41 -69 -107 -215 -138 -307 -87 -259 -95 -515 -24 -730 88
-265 293 -500 584 -668 246 -143 545 -235 915 -282 184 -23 548 -24 692 -1 13
2 46 6 73 9 43 5 136 21 240 41 188 36 448 130 615 223 234 129 440 321 539
506 17 30 35 63 40 73 18 32 50 132 68 206 18 77 24 295 10 379 -25 155 -92
346 -179 508 -49 91 -52 99 -54 180 -1 47 -5 198 -8 335 -4 138 -9 327 -11
420 -3 94 -7 262 -10 375 -8 326 -16 542 -20 580 -2 19 -6 64 -10 99 -6 58
-63 299 -80 344 -8 20 -11 20 90 2 88 -15 220 -13 305 5 65 15 181 66 243 108
110 76 181 171 292 392 37 74 73 141 79 149 6 8 12 71 14 156 4 139 3 142 -21
171 l-25 29 -399 -1 c-393 -1 -399 -2 -500 -27 -164 -41 -375 -153 -488 -259
-16 -15 -34 -28 -38 -28 -4 0 -36 24 -70 53 -229 194 -554 328 -857 352 -92 8
-179 12 -183 10z"/>
</g>
</svg>
