<svg xmlns="http://www.w3.org/2000/svg" viewBox="0 0 16 16" width="100%" height="100%">
<path d="M10.69,8.27c0.01,0.05,0.05,0.09,0.1,0.09c0.01,0,0.01,0,0.02,0c0.06-0.01,0.1-0.06,0.09-0.12C10.86,8,10.8,7.62,10.7,7.14
  c-0.01-0.06-0.07-0.09-0.12-0.08c-0.06,0.01-0.09,0.07-0.08,0.12C10.59,7.66,10.65,8.03,10.69,8.27z"/>
<path d="M15.85,2h-1.44c-0.77-0.03-1.43,0.43-1.75,0.75c-0.04-0.04-0.08-0.08-0.12-0.11c-0.65-0.57-1.52-0.87-2.37-0.86
  c-0.43,0-0.86,0.07-1.26,0.22c-0.4,0.15-0.78,0.37-1.11,0.65C7.75,2.67,7.71,2.7,7.68,2.74C7.35,2.42,6.7,1.97,5.93,2H5.38
  C5.37,2,5.37,2,5.36,2H3.18C3.11,2,3.05,2.04,3.03,2.11C2.94,2.43,2.82,2.7,2.68,2.92C2.54,3.13,2.36,3.3,2.14,3.42
  C1.92,3.55,1.65,3.64,1.33,3.7C1.01,3.76,0.61,3.79,0.15,3.79C0.07,3.79,0,3.86,0,3.94v1.89c0,0.09,0.07,0.15,0.15,0.15h2.03v7.69
  c0,0.09,0.07,0.15,0.15,0.15h3.03c0.09,0,0.15-0.07,0.15-0.15V4.15c0.19,0.08,0.39,0.12,0.6,0.12c0.09,0,0.18-0.01,0.27-0.02
  L6.7,4.2C6.63,4.4,6.57,4.6,6.53,4.81C6.48,5.02,6.46,5.23,6.45,5.44c-0.01,0.11,0,0.21-0.01,0.31L6.43,6.07L6.39,7.3L6.33,9.46
  c-0.35,0.58-0.54,1.18-0.54,1.74c0,0.85,0.46,1.6,1.29,2.13c0.79,0.5,1.87,0.78,3.05,0.78c2.56,0,4.41-1.22,4.41-2.91
  c0-0.56-0.19-1.16-0.54-1.74c-0.02-0.72-0.04-1.44-0.06-2.17l-0.04-1.23l-0.01-0.31c0-0.1,0-0.21-0.01-0.31
  c-0.01-0.21-0.04-0.42-0.08-0.63c-0.04-0.21-0.1-0.42-0.18-0.62l0.34,0.06c0.09,0.02,0.18,0.02,0.27,0.02
  c0.55,0,1.07-0.29,1.36-0.78c0,0,0-0.01,0-0.01l0.4-0.78C15.99,2.69,16,2.66,16,2.64V2.15C16,2.07,15.93,2,15.85,2z M12.23,6.44
  c0.19,0,0.35,0.16,0.35,0.35c0,0.19-0.15,0.35-0.35,0.35c-0.19,0-0.35-0.16-0.35-0.35C11.88,6.6,12.04,6.44,12.23,6.44z M9.95,4.65
  c0.04-0.11,0.13-0.16,0.21-0.16s0.17,0.05,0.21,0.16c0.72,1.78,0.98,3.5,0.98,3.83c0,0.31-0.52,0.55-1.19,0.55
  c-0.67,0-1.19-0.25-1.19-0.55C8.97,8.16,9.22,6.44,9.95,4.65z M10.33,10.2v1.39c0,0.09-0.07,0.15-0.15,0.15s-0.15-0.07-0.15-0.15
  V10.2c0-0.09,0.07-0.15,0.15-0.15S10.33,10.12,10.33,10.2z M8.19,6.44c0.19,0,0.35,0.16,0.35,0.35c0,0.19-0.15,0.35-0.35,0.35
  C8,7.14,7.84,6.98,7.84,6.79C7.84,6.6,8,6.44,8.19,6.44z M7.84,9.82C7.8,9.84,7.76,9.86,7.73,9.89C7.7,9.9,7.68,9.92,7.66,9.94
  C7.64,9.96,7.62,9.98,7.6,9.99L7.6,10c-0.03,0.04-0.09,0.04-0.13,0C7.44,9.98,7.43,9.93,7.45,9.89C7.48,9.86,7.5,9.83,7.52,9.8
  c0.02-0.03,0.05-0.05,0.07-0.08C7.64,9.67,7.7,9.63,7.76,9.59c0.06-0.04,0.13-0.07,0.2-0.09C8.01,9.49,8.06,9.48,8.1,9.47
  c0.03-0.01,0.05-0.01,0.08-0.01c0,0,0,0,0,0c0.02,0,0.04,0,0.05,0C8.4,9.49,8.53,9.63,8.53,9.8c0,0.19-0.15,0.34-0.34,0.34
  C8,10.15,7.85,10,7.84,9.82z M12.14,12.41c-0.62,0.32-1.3,0.48-1.98,0.48c-0.69,0-1.38-0.16-2.01-0.49l-0.01,0l0.14-0.28l0.01,0.01
  c1.16,0.6,2.55,0.6,3.71,0.01c0.02-0.01,0.04-0.02,0.06-0.03l0.14,0.27C12.18,12.39,12.16,12.4,12.14,12.41z M12.86,10.02
  c-0.04,0.02-0.08,0.02-0.11-0.02l-0.01-0.01c-0.01-0.02-0.04-0.04-0.06-0.06c-0.02-0.02-0.04-0.04-0.07-0.05
  c-0.04-0.03-0.08-0.05-0.12-0.06c-0.01,0.18-0.16,0.32-0.34,0.32c-0.19,0-0.34-0.15-0.34-0.34c0-0.17,0.12-0.31,0.29-0.34
  c0.01,0,0.02,0,0.03-0.01c0.01,0,0.02,0,0.03,0c0,0,0,0,0,0c0.03,0,0.06,0,0.08,0.01c0.05,0.01,0.09,0.02,0.14,0.03
  c0.07,0.02,0.14,0.05,0.2,0.09c0.06,0.04,0.12,0.08,0.17,0.13c0.03,0.02,0.05,0.05,0.07,0.08c0.02,0.03,0.04,0.05,0.07,0.09
  C12.91,9.94,12.9,9.99,12.86,10.02z"/>
</svg>
