<svg xmlns="http://www.w3.org/2000/svg" viewBox="0 0 512 512"
  width="100%" height="100%">
  <defs>
    <style>
      .cls-11,.cls-7 {stroke:#3a6582}
      .cls-11 {stroke-linecap:round}
      .cls-7 {stroke-linejoin:round}
      .cls-11,.cls-7 {stroke-width:12px}
      .cls-5 {fill:#add2f7}
      .cls-6 {fill:#8ebeed}
      .cls-11,.cls-7 {fill:none}
      .cls-8 {fill:#3a6582}
    </style>
    <linearGradient id="linear-gradient" x1="-17.48" y1="-17.48" x2="547" y2="547">
      <stop offset="0" stop-color="#fff"/>
      <stop offset="1"/>
    </linearGradient>
  </defs>
  <rect x=".1" y=".1" width="512" height="512" rx="112.5" ry="112.5" fill="#3ea5fe"/>
  <rect x=".1" y=".1" width="512" height="512" rx="112.5" ry="112.5" fill="url(#linear-gradient)" opacity=".2"/>
  <path d="M95.45 210.23h-62v-53.65A199.61 199.61 0 0 0 67.7 154q14.33-2.55 24.51-8.33A47.8 47.8 0 0 0 108.86 130a91.06 91.06 0 0 0 10.64-24.28h62v327.43h-86z" stroke-width="12" stroke-linejoin="round" stroke-linecap="round" stroke="#3a6582" fill="#fff"/>
  <path class="cls-5" d="M197.79 105.75h-40.92v13.83l11.41 22.24a40.18 40.18 0 0 0 41.55 19.29l20.17-3.52 19.31-26.26c-2.56-4.54-24.59-26.78-51.52-25.58z"/>
  <path class="cls-6" d="M216.86 122.48c-5.89-4-12.89-7.19-20-7.19h-28.55a3 3 0 0 0-3 3V136l3 5.85a40.18 40.18 0 0 0 41.55 19.29l20.14-3.55 12.84-17.46z"/>
  <path class="cls-7" d="M249.29 131.33c-2.54-4.54-24.57-26.78-51.5-25.58h-40.92v13.83l11.41 22.24a40.18 40.18 0 0 0 41.55 19.29l20.17-3.52"/>
  <path class="cls-8" d="M198.3 118.53a41.42 41.42 0 0 1 12.7 1.15 50.46 50.46 0 0 1 12 4.62 61.22 61.22 0 0 1 10.57 7.24 62.77 62.77 0 0 1 4.7 4.39c.74.78 1.48 1.56 2.17 2.41.35.42.69.85 1 1.29l.51.68.55.8-8.5 8.46-.18-.11-.58-.32-1.34-.68c-1-.44-2-.9-3-1.31a59 59 0 0 0-6.74-2.12c-2.32-.64-4.73-1.14-7.16-1.67-1.22-.24-2.44-.46-3.68-.73s-2.48-.43-3.73-.7h-.1a2.78 2.78 0 0 1 .1-5.46c1.31-.23 2.62-.4 3.93-.59s2.65-.26 4-.38 2.67-.14 4-.16 2.7 0 4.06.07a62.87 62.87 0 0 1 8.28.94 36.07 36.07 0 0 1 4.26 1 20.09 20.09 0 0 1 2.2.79c.37.15.77.33 1.15.51a14.77 14.77 0 0 1 1.48.84l-8.6 8.51-.67-.9-.79-1c-.55-.67-1.08-1.38-1.66-2.06-1.13-1.37-2.3-2.73-3.55-4a63.13 63.13 0 0 0-8.08-7.08A49.95 49.95 0 0 0 198 124h-.1a2.75 2.75 0 0 1 .43-5.43z"/>
  <path class="cls-5" d="M438.55 105.75h40.92v13.83l-11.41 22.24a40.17 40.17 0 0 1-41.54 19.29l-20.16-3.52-19.31-26.26c2.54-4.54 24.57-26.78 51.5-25.58z"/>
  <path class="cls-6" d="M419.48 122.48c5.9-4 12.89-7.19 20-7.19H468a3 3 0 0 1 3 3V136l-3 5.85a40.17 40.17 0 0 1-41.54 19.29l-20.16-3.52-12.84-17.46z"/>
  <path class="cls-7" d="M387.05 131.33c2.54-4.54 24.57-26.78 51.5-25.58h40.92v13.83l-11.41 22.24a40.17 40.17 0 0 1-41.54 19.29l-20.16-3.52"/>
  <path class="cls-8" d="M438.37 124a49.95 49.95 0 0 0-19.63 8.89 63.13 63.13 0 0 0-8.08 7.08c-1.24 1.28-2.42 2.64-3.55 4-.58.68-1.11 1.39-1.66 2.06l-.78 1-.67.9-8.52-8.46a13.82 13.82 0 0 1 1.47-.84c.39-.18.78-.36 1.15-.51a20.09 20.09 0 0 1 2.2-.79 36.55 36.55 0 0 1 4.26-1 62.87 62.87 0 0 1 8.28-.94c1.36-.07 2.71-.06 4.06-.07s2.69.1 4 .16 2.66.22 4 .38 2.62.36 3.93.59a2.79 2.79 0 0 1 .1 5.47h-.1c-1.25.27-2.49.47-3.73.7s-2.46.49-3.68.73c-2.43.53-4.83 1-7.16 1.67a58.17 58.17 0 0 0-6.73 2.12c-1.07.41-2.08.87-3 1.31l-1.34.68-.57.32c-.11.06-.44.27-.19.11l-8.52-8.46.56-.8c.16-.23.33-.46.51-.68.34-.44.68-.87 1-1.29.69-.85 1.43-1.63 2.17-2.41a62.77 62.77 0 0 1 4.7-4.39 61.22 61.22 0 0 1 10.57-7.24 50.53 50.53 0 0 1 12-4.62 41.35 41.35 0 0 1 12.58-1.14 2.75 2.75 0 0 1 .43 5.43z"/>
  <path class="cls-5" d="M420.13 206.7c0-59.3-43.15-107.38-102.32-107.38S215.47 147.4 215.47 206.7c-.14 3.36-.3 7.17-4.81 115.63H425z"/>
  <path class="cls-6" d="M420.13 206.7c0-44.73-24.55-83.07-62-99.22-61.12-.92-106.46 48.3-106.46 109.94l-4.36 104.91H425z"/>
  <ellipse cx="261.87" cy="237.59" rx="9.84" ry="9.86"/>
  <path class="cls-5" d="M437.71 363.07c0 47.4-54.83 78.27-121 78.27S197.9 410.47 197.9 363.07s53.69-110.81 119.91-110.81 119.9 63.4 119.9 110.81z"/>
  <path class="cls-6" d="M437.71 363.07c0-37.29-33.22-84.48-79.63-102.91-66.41 2.22-118.25 79.23-118.25 127.07 0 17.51 7 32.82 19.15 45.23 17 5.77 36.66 8.88 57.68 8.88 66.22 0 121.05-30.87 121.05-78.27z"/>
  <path d="M437.71 363.07c0 47.4-54.83 78.27-121 78.27S197.9 410.47 197.9 363.07s53.69-110.81 119.91-110.81 119.9 63.4 119.9 110.81z" fill="none" stroke-width="12" stroke-linejoin="round" stroke-linecap="round" stroke="#3a6582"/>
  <path class="cls-8" d="M240.15 325.24l.26-.44.23-.37c.15-.23.3-.46.46-.68.3-.45.62-.86.94-1.29a31.61 31.61 0 0 1 2.1-2.38 27.06 27.06 0 0 1 5-4 26.56 26.56 0 0 1 6-2.84 30.78 30.78 0 0 1 6.6-1.4 6 6 0 0 1 1.43 12 6.1 6.1 0 0 1-1.35 0h-.08a19.09 19.09 0 0 0-4.14-.13 16.11 16.11 0 0 0-4.17.85 17.92 17.92 0 0 0-4 1.89 21.66 21.66 0 0 0-1.87 1.31c-.29.24-.59.48-.86.73l-.4.36-.19.18c0 .05-.12.12-.13.11a3.49 3.49 0 1 1-5.82-3.87z"/>
  <ellipse cx="376.69" cy="237.59" rx="9.84" ry="9.86"/>
  <path d="M373.87 392.44l-1.69.88a119.71 119.71 0 0 1-109.35-.32l-.36-.19" stroke-miterlimit="10" fill="none" stroke-width="12" stroke="#3a6582"/>
  <path class="cls-11" d="M318.17 334.6v39.37"/>
  <circle class="cls-11" cx="261.75" cy="323.19" r="5.38"/>
  <path class="cls-8" d="M390.37 329.11s-.08-.06-.13-.11l-.19-.18-.4-.36c-.27-.25-.57-.49-.86-.73a20.22 20.22 0 0 0-1.87-1.31 17.92 17.92 0 0 0-4-1.89 16.12 16.12 0 0 0-4.16-.85 19.16 19.16 0 0 0-4.15.13 6 6 0 0 1-1.32-12 6.26 6.26 0 0 1 1.37 0 30.65 30.65 0 0 1 6.6 1.4 26.36 26.36 0 0 1 6 2.84 26.73 26.73 0 0 1 5 4 31.61 31.61 0 0 1 2.1 2.38c.32.43.64.84.95 1.29l.45.68.23.37.26.44a3.49 3.49 0 1 1-5.82 3.87z"/>
  <circle class="cls-11" cx="374.59" cy="323.19" r="5.38"/>
  <path d="M317.81 172.35c-2.39 0-4.78 1.4-6 4.51-20.52 50.66-27.76 99.65-27.76 109 0 8.69 14.85 15.76 33.8 15.76s33.8-7.07 33.8-15.76c0-9.54-7.25-58.29-27.77-108.95-1.3-3.16-3.69-4.56-6.07-4.56z" fill="#fff"/>
  <path d="M317.81 301.57c18.95 0 33.8-7.07 33.8-15.76 0-7.83-4.89-42.09-18-82.14a6.06 6.06 0 0 0-5.25 4.05c-9.51 26.1-17.66 75.77-19.78 93.26a71.58 71.58 0 0 0 9.23.59z" fill="#cde5fe"/>
  <path d="M326.88 233.06c-1.1-4.64-2.3-9.48-3.62-14.47m12.55 60.51c-1-6.72-2.77-17.51-5.56-30.89" stroke-width="8" stroke-miterlimit="10" fill="none" stroke-linecap="round" stroke="#3a6582"/>
  <path class="cls-8" d="M317.81 174.82a3.65 3.65 0 0 0-2.73 1.15 5.57 5.57 0 0 0-1 1.44c-.12.25-.28.67-.43 1.06l-.45 1.17c-1.18 3.12-2.38 6.23-3.43 9.4-2.15 6.31-4.2 12.66-6 19.07-3.77 12.82-6.77 25.81-9.3 38.89-1.22 6.54-2.34 13.09-3.26 19.64-.46 3.28-.88 6.55-1.21 9.81-.18 1.63-.3 3.24-.45 4.85l-.15 2.36v2.14a3.25 3.25 0 0 0 .18.78 5.64 5.64 0 0 0 .54.94 10.18 10.18 0 0 0 2.31 2.16 27.44 27.44 0 0 0 7.42 3.51 60.47 60.47 0 0 0 18 2.46 59.7 59.7 0 0 0 17.92-2.7 26.27 26.27 0 0 0 7.28-3.56 9.41 9.41 0 0 0 2.15-2.13 5.66 5.66 0 0 0 .46-.83 2.57 2.57 0 0 0 .14-.63c0-.71 0-1.36-.06-2.12l-.16-2.34c-.15-1.59-.3-3.2-.5-4.82-.39-3.24-.82-6.51-1.28-9.77l-.75-4.9-.83-4.9c-.55-3.26-1.16-6.53-1.76-9.79-2.53-13-5.51-26-9.12-38.85q-2.71-9.62-5.9-19.1c-1-3.17-2.23-6.27-3.35-9.42l-.42-1.18c-.14-.39-.29-.81-.39-1a5.52 5.52 0 0 0-.87-1.44 3.59 3.59 0 0 0-2.6-1.35zm0-4.94a8.64 8.64 0 0 1 6.37 2.69 10.5 10.5 0 0 1 1.89 2.74c.26.53.4.89.56 1.28l.5 1.17c1.28 3.12 2.66 6.22 3.87 9.37q3.79 9.41 7.19 19c4.52 12.76 8.53 25.72 11.91 38.87 1.67 6.59 3.21 13.21 4.49 19.91.65 3.36 1.26 6.72 1.75 10.14.26 1.7.47 3.43.68 5.17l.27 2.68c.07.92.11 1.94.16 2.91a14.6 14.6 0 0 1-.67 4.32 15.71 15.71 0 0 1-1.76 3.66 21 21 0 0 1-4.84 5.06 37.76 37.76 0 0 1-10.63 5.44 57.07 57.07 0 0 1-10.86 2.52 78.06 78.06 0 0 1-10.88.71 66.84 66.84 0 0 1-21.65-3.52 36.52 36.52 0 0 1-10.5-5.49 20.57 20.57 0 0 1-4.68-5 15.67 15.67 0 0 1-1.69-3.57 13.85 13.85 0 0 1-.62-4.17c.05-1 .09-2 .18-2.88l.28-2.66c.23-1.73.46-3.45.75-5.15.54-3.39 1.17-6.75 1.83-10.09 1.31-6.68 2.92-13.28 4.57-19.85q5.1-19.69 11.75-38.86 3.32-9.57 7-19c.59-1.58 1.25-3.13 1.9-4.69s1.29-3.12 1.89-4.7l.47-1.18c.15-.39.28-.76.52-1.27a9.71 9.71 0 0 1 1.76-2.73 8.49 8.49 0 0 1 6.24-2.83z"/>
  <path class="cls-8" d="M424.37 319.59h.58l-2.75 2.87c-1.45-23.39-2.9-46.79-4.21-70.2l-2-35.12-.47-8.78c-.09-1.47-.13-2.89-.19-4.33s-.08-2.87-.22-4.26a106.92 106.92 0 0 0-2.47-16.63 108.57 108.57 0 0 0-4.94-16 107.08 107.08 0 0 0-7.4-15 96.14 96.14 0 0 0-21.49-25.11 93.86 93.86 0 0 0-28.59-16.14 89.41 89.41 0 0 0-16-4.08 105.44 105.44 0 0 0-16.47-1.44 104.36 104.36 0 0 0-16.48 1.32 92.9 92.9 0 0 0-44.68 20.17c-17.07 14.14-28.89 34.38-33.73 56.24a108.22 108.22 0 0 0-2.48 16.65c-.14 1.39-.18 2.83-.23 4.26s-.09 2.85-.18 4.33l-.48 8.78-1.92 35.12-2 35.11q-1 17.55-2.13 35.09l-2.74-2.86h.59a2.73 2.73 0 0 1 0 5.46h-.59a2.68 2.68 0 0 1-2.74-2.63v-.23q.35-17.55.8-35.1l.87-35.1 1-35.09.25-8.77c.06-1.45.06-3 .08-4.45s0-3 .12-4.51a116.61 116.61 0 0 1 2.22-18.13 113.17 113.17 0 0 1 5-17.64 116.18 116.18 0 0 1 7.82-16.64 107.18 107.18 0 0 1 23.4-28.39 101.64 101.64 0 0 1 15.08-10.79 106.16 106.16 0 0 1 16.82-7.91 101.33 101.33 0 0 1 17.94-4.82 116.94 116.94 0 0 1 18.48-1.61c24.72-.24 49.79 8.59 68.48 24.95a107.62 107.62 0 0 1 23.4 28.49 114.42 114.42 0 0 1 7.79 16.68 118.16 118.16 0 0 1 5 17.66 115.71 115.71 0 0 1 2.23 18.14c.12 1.53.12 3 .13 4.52s0 3 .08 4.45l.25 8.77.95 35.09c.64 23.39 1.13 46.79 1.64 70.2v.11a2.7 2.7 0 0 1-2.64 2.76h-.7a2.74 2.74 0 0 1 0-5.48z"/>
</svg>
