<svg xmlns="http://www.w3.org/2000/svg" viewBox="0 0 512 512"
  width="100%" height="100%">
<style type="text/css">
  .skin-highlight{fill:#ADD2F7;}
  .skin{fill:#8EBEED;}
  .horn-highlight{fill:#CDE5FE;}
  .outline{fill:#3A6582;}
</style>
<title>10sai</title>
<g id="artwork">
  <path fill="white" d="M75.5,188.6H6v-60.1c59.6,0,83.8-13.5,96.4-57h69.5v367H75.5V188.6z"/>
  <path class="skin-highlight" d="M460.1,71.5c-24.1-1.1-45.9,16.3-55.2,25.9c-20.2-20.5-48.1-33.1-80.2-33.1c-31.4,0-58.7,12.1-78.8,31.8
    c-10.5-9.8-32.7-25.6-55.7-24.6h-45.9V87l12.8,24.9c9.5,16.2,28.1,24.8,46.6,21.6l18.2-3.4c-7.9,17.1-12,35.7-11.9,54.5
    c-0.1,3.7-0.3,8-5.2,126c-9.2,16.5-14.4,33.6-14.4,49.3c0,53.1,58.9,87.8,133.1,87.8s135.8-34.6,135.8-87.7
    c0-15.6-5.2-32.8-14.5-49.3l-5.2-126c0.1-18.6-3.8-36.9-11.5-53.8l18.7,2.7c18.5,3.2,37.1-5.4,46.6-21.6L506,87V71.5H460.1z"/>
  <path class="skin" d="M493.2,82.2h-32c-8,0-15.9,3.5-22.5,8.1l-25.1,17.1c-11.5-14.8-26.5-26.4-43.6-33.9
    c-68.5-1-119.4,54.1-119.4,123.2l-2.8,65.9c21.9-16.2,48.5-26.9,77.3-26.9c13.9,0.1,27.5,3.3,40.1,9.1
    c-72.2,5.8-127.9,89.7-127.9,142.2c0,19.6,7.9,36.8,21.5,50.7c19.1,6.5,41.1,10,64.7,10c74.2,0,135.7-34.6,135.7-87.8
    c0-15.9-5.4-33.4-15-50.1l-4.8-125.1c0.1-18.9-4-37.6-12-54.7l19.1,3.6c18.5,3.2,37.1-5.4,46.6-21.6l3.4-6.6V85.6
    C496.6,83.7,495,82.2,493.2,82.2z"/>
  <path class="skin" d="M211.6,90.2c-6.6-4.5-14.5-8.1-22.5-8.1h-32c-1.9,0-3.4,1.5-3.4,3.4v19.8l3.4,6.6
    c9.5,16.2,28.1,24.8,46.6,21.6l22.6-3.9l14.4-19.6L211.6,90.2z"/>
  <ellipse cx="262.1" cy="219.3" rx="11" ry="11.1"/>
  <ellipse cx="390.8" cy="219.3" rx="11" ry="11.1"/>
  <path fill="white" d="M324.8,146.2c-2.7,0-5.4,1.6-6.8,5.1c-23,56.8-31.1,111.7-31.1,122.1c0,9.7,16.6,17.7,37.9,17.7
    s37.9-7.9,37.9-17.7c0-10.7-8.1-65.4-31.1-122.1C330.1,147.7,327.4,146.2,324.8,146.2z"/>
  <path class="horn-highlight" d="M324.8,291c21.2,0,37.9-7.9,37.9-17.7c0-8.8-5.5-47.2-20.2-92.1c-2.7,0.2-5,2-5.9,4.5
    c-10.7,29.3-19.8,84.9-22.2,104.6C317.9,290.8,321.3,291,324.8,291z"/>
  <path class="outline" d="M383,388.5c-36.8,18.7-80.4,18.6-117.1-0.3l-0.4-0.2l-5.5,10.7l0.4,0.2c40.1,20.7,87.8,20.9,128.1,0.4l2-1
    l-5.6-10.6L383,388.5z"/>
  <path class="outline" d="M325.2,378.2c3.3,0,6-2.7,6-6V328c0-3.3-2.7-6-6-6s-6,2.7-6,6v44.1C319.2,375.5,321.9,378.2,325.2,378.2z"/>
  <path class="outline" d="M412.8,317.8c-7.3-11.9-20.4-15.6-25.8-14.5c-6.6,0.8-11.3,6.8-10.4,13.4c0.8,6.6,6.8,11.3,13.4,10.4
    c5.4-0.7,9.6-4.8,10.4-10.1c2.4,1.1,4.6,2.6,6.5,4.5c1.5,1.3,3.7,1.3,5.3,0.1C413.2,320.7,413.5,319.1,412.8,317.8z"/>
  <path class="outline" d="M336,218.5c2.4-0.6,3.8-2.9,3.3-5.3c0,0,0,0,0,0c-1.3-5.5-2.7-11-4.1-16.3c-0.6-2.4-3-3.8-5.4-3.1
    c-2.4,0.6-3.8,3-3.1,5.4l0,0c1.4,5.3,2.8,10.7,4,16.1C331.2,217.6,333.6,219.1,336,218.5C336,218.5,336,218.5,336,218.5z"/>
  <path class="outline" d="M343,230.3c-0.5-2.4-2.8-3.9-5.2-3.4s-3.9,2.8-3.4,5.2c3.1,14.9,5.1,26.9,6.2,34.4c0.4,2.4,2.6,4.1,5,3.7
    s4.1-2.6,3.7-5l0,0C348.2,257.6,346.2,245.4,343,230.3z"/>
  <path class="outline" d="M506,65.5h-45.8c-24.3-1-45.2,13.2-55.9,23.4c-21.6-20-50.1-31-79.6-30.7c-30.2,0.3-57.3,10.7-79,30.5
    c-10.8-10.2-27.6-23.2-55.7-23.2s-87.6-0.1-87.6-0.1c-2.7,0-5,1.8-5.8,4.3c-10,34.5-25.4,52.7-90.7,52.7c-3.3,0-6,2.7-6,6
    c0,0,0,0,0,0v60.1c0,3.3,2.7,6,6,6h63.5v243.9c0,3.3,2.7,6,6,6h96.4c3.3,0,6-2.7,6-6V136.8c5.8,2.2,12,3.4,18.2,3.4
    c6.5,0,10.3-1.2,17.1-2.2c-7.3,20.2-7.2,34.9-7.8,48.3c-0.3,9.5-3.1,105-3.2,116.9c-11.4,18.7-17.8,38.6-17.8,56.8
    c0,27.4,14.7,51.8,41.5,68.9c25.2,16,59.9,24.9,97.6,24.9c37.9,0,73-8.8,98.9-24.8c27.7-17.2,42.9-41.6,42.9-68.9
    c0-18.1-6.4-38-17.8-56.7c-2-85.2-3.1-112-3.2-121.9c-0.2-14.8-2.8-29.5-7.7-43.5c7.4,1.2,11.2,2.4,17.8,2.4
    c18.1,0,34.9-9.6,44.1-25.2l0.2-0.3l12.8-24.9c0.4-0.9,0.7-1.8,0.7-2.8V71.5C512,68.2,509.3,65.5,506,65.5z M165.9,432.5H81.5
    V188.6c0-3.3-2.7-6-6-6H12v-48.2c51.1-0.9,80.2-11.9,94.9-57h31.5V87c0,1,0.2,1.9,0.7,2.7c9.8,16.8,11.6,29.4,26.9,40.6
    L165.9,432.5z M202.7,127.6c-16,2.7-32-4.7-40.3-18.6l-12-23.5v-8h40.1c20.1-0.9,38.1,11.6,46.9,19.7c-1.8,2-3.4,4-5,6
    c-11.6-10.8-26.2-17.8-41.6-17c-1.5,0.1-2.7,1.4-2.6,2.9c0.1,1.3,1,2.3,2.2,2.6h0.1c10.1,2,19.5,6.7,27.2,13.6
    c-5.5-0.2-11,0.1-16.5,1c-1.5,0.2-2.5,1.7-2.3,3.2c0.2,1.1,1.1,2.1,2.2,2.3h0.1c3.2,0.6,14.1,2.2,22.1,4.8
    c-1.1,1.8-2.1,3.5-4.4,8.3L202.7,127.6z M453.2,360c0,16.3-6.5,39.6-37.2,58.7c-24,14.9-56.8,23-92.5,23c-35.5,0-67.9-8.2-91.2-23
    c-16.4-10.5-35.9-29.1-35.9-58.8c0-39.6,37-92.3,88.8-111.1c-1.8,8.1-3,16.2-3.6,24.4c0,3,0.9,5.8,2.5,8.3
    c7.5,11.5,27,15.2,40.7,15.3c14.3,0,33.4-3.6,41.1-15.1c1.7-2.5,2.6-5.5,2.6-8.6c-0.5-8.1-1.6-16.2-3.3-24.2
    C416.1,268,453.2,320.1,453.2,360z M298.1,229.7c7.9-40.2,20.9-77.2,23.4-79.7c0.8-0.9,2-1.4,3.3-1.4c1.2,0.1,2.3,0.6,3.1,1.5
    c8,9,32.1,113.7,28.8,124.1c-3,8-22.9,10.8-31.9,10.8c-20.7,0-30.8-6.8-32.3-10.7C290.8,269.7,297.2,234.6,298.1,229.7z
     M440.9,293.5c-18.9-26.1-46.6-48.1-78.6-58c-8.1-35-22.5-73.4-28.5-85.9c-0.5-1.1-1.2-2.1-2.1-3c-1.8-1.9-4.3-2.9-6.9-2.9
    c-2.6,0-5,1.2-6.8,3.1c-3,3.3-19.8,46.1-29.9,88.5c-32.1,9.7-60.3,31.6-79.5,58.3c0.4-6.2,4.2-74.6,5.9-107
    C221.8,67.6,322.5,70.4,324.8,70.3c62.7,0.6,107.9,49.3,109.9,111.3C435.2,195.6,440.1,279.5,440.9,293.5L440.9,293.5z M500,85.5
    L487.9,109c-8.3,13.9-24.3,21.3-40.3,18.6l-16.8-2.9c-2.1-4.3-3.2-6.1-4.3-8c8.1-2.8,19.1-4.3,22.6-5h0.1c1.5-0.3,2.5-1.8,2.2-3.3
    c-0.2-1.1-1.1-2-2.3-2.2c-5.5-0.9-11-1.2-16.5-1c7.7-6.9,17.1-11.6,27.2-13.6h0.1c1.5-0.3,2.4-1.8,2.1-3.2
    c-0.3-1.2-1.3-2.1-2.6-2.2c-15.7-0.8-30.4,6.5-41.9,17.4c-1.6-2.1-3.3-4.1-5-6.1c8.6-8.1,26.8-20.9,47.2-20H500V85.5z"/>
  <path class="outline" d="M237.6,317.8c7.3-11.9,20.4-15.6,25.8-14.5c6.6,0.8,11.2,6.8,10.4,13.4s-6.8,11.2-13.4,10.4
    c-5.3-0.7-9.6-4.8-10.4-10.1c-2.4,1.1-4.6,2.6-6.5,4.5c-1.5,1.3-3.7,1.3-5.3,0.1C237.1,320.7,236.8,319.1,237.6,317.8z"/>
</g>
</svg>
