<svg xmlns="http://www.w3.org/2000/svg" viewBox="0 0 1200 500" width="100%" height="100%">
  <g id="icons" fill="currentColor">
    <!-- Plus -->
    <g>
      <rect x="40" y="10" width="20" height="80" rx="3" ry="3"/>
      <rect x="10" y="40" width="80" height="20" rx="3" ry="3"/>
    </g>
    <!-- Search -->
    <g transform="translate(100 -100)">
      <path d="M87.37,199.62l-23.49-23.49c-6.44,4.21-14.13,6.68-22.43,6.68
        c-22.64,0-40.95-18.35-40.95-40.99c0-22.6,18.31-40.94,40.95-40.94
        c22.6,0,40.94,18.35,40.94,40.94c0,7.9-2.22,15.27-6.07,21.5l23.66,23.65
        c1.25,1.22,0.2,4.25-2.31,6.76l-3.52,3.53
        C91.62,199.78,88.59,200.83,87.37,199.62L87.37,199.62z M68.78,141.82
        c0-15.11-12.23-27.34-27.34-27.34c-15.11,0-27.38,12.23-27.38,27.34
        s12.27,27.38,27.38,27.38C56.55,169.2,68.78,156.93,68.78,141.82z"/>
    </g>
    <!-- Sync -->
    <g transform="translate(200 0)">
      <path d="M87.6 34.7C81.3 20.2 67 10.9 51.2 10.9c-17.7 0-32.7 11.5-37.8 27.3l-1.9-3.6c-1.1-2-3.7-2.8-5.7-1.7S3 36.6 4.1 38.6l7.5 13.8c.6 1.1 1.7 1.9 3 2.1h.7c.8 0 1.6-.3 2.3-.7.6-.3 1.1-.8 1.5-1.3l11.9-11c1.7-1.6 1.8-4.2.2-5.9-1.6-1.7-4.2-1.8-5.9-.2L22.6 38c4.8-11 15.9-18.7 28.8-18.7 12.5 0 23.7 7.4 28.7 18.8.9 2.1 3.4 3.1 5.5 2.2 2-1 3-3.4 2-5.6zm8.3 26.7l-7.5-13.8c-.6-1.1-1.7-1.9-3-2.1-1-.2-2 .1-2.9.6-.6.3-1.2.8-1.6 1.4L69 58.5c-1.7 1.6-1.8 4.2-.2 5.9 1.6 1.7 4.2 1.8 5.9.2l2.7-2.6c-4.8 11-15.9 18.7-28.8 18.7-12.5 0-23.7-7.4-28.7-18.8-.9-2.1-3.4-3.1-5.5-2.2-2.1.9-3.1 3.4-2.2 5.5C18.5 79.7 32.8 89 48.6 89c17.7 0 32.7-11.5 37.8-27.3l1.9 3.6c.8 1.4 2.2 2.2 3.7 2.2.7 0 1.4-.2 2-.5 2.2-1 3-3.6 1.9-5.6z"/>
    </g>
    <!-- Bin -->
    <g transform="translate(300 0)" fill="none" stroke="currentColor"
      stroke-width="5" stroke-linecap="round">
      <line x1="2.601" y1="20.206" x2="97.398" y2="20.206"/>
      <path d="M8.421,13.864c0-4.676,1.465-10.873,10.226-10.844
              c6.818,0.022,56.71-0.029,61.664-0.029c8.301,0,11.268,
              3.684,11.268,10.873"/>
      <path d="M15.299,26.281c0,0,5.161,59.847,5.761,63.939S25.486,97,29.008,97
              s39.546,0,43.068,0s7.064-2.926,7.494-6.78s4.129-63.939,
              4.129-63.939"/>
      <line x1="40.75" y1="28.5" x2="40.75" y2="83"/>
      <line x1="59.45" y1="28.5" x2="59.45" y2="83"/>
    </g>
    <!-- Add card -->
    <g transform="translate(400 0)">
      <path d="M67.06,56.46H43.54V32.94c0-1.44-1.17-2.61-2.61-2.61
        H28.74c-1.44,0-2.61,1.17-2.61,2.61v23.52H2.61
        C1.17,56.46,0,57.63,0,59.07v12.19c0,1.45,1.17,2.61,2.61,2.61
        h23.52v23.52c0,1.45,1.17,2.61,2.61,2.61h12.19
        c1.44,0,2.61-1.16,2.61-2.61V73.87h23.52c1.45,0,2.61-1.16,2.61-2.61
        V59.07C69.67,57.63,68.51,56.46,67.06,56.46z"/>
      <path d="M23.13,84.95c-4.15-0.42-7.47-3.8-8.03-8.08h-4.03
        c0.6,6.5,5.72,11.64,12.06,12.08V84.95z"/>
      <path d="M86.99,0H24.01C16.83,0,11,6.02,11,13.42v40.04h4V13.42
        C15,8.23,19.04,4,24.01,4h62.99C91.96,4,96,8.23,96,13.42v62.16
        c0,5.19-4.04,9.42-9.01,9.42H46.54v4h40.45C94.17,89,100,82.98,100,75.58
        V13.42C100,6.02,94.17,0,86.99,0z"/>
    </g>
    <!-- Edit -->
    <g transform="translate(550 50) scale(1.7) translate(-50 -50)">
      <path d="M77.18,30.44l-7.62-7.62a5,5,0,0,0-7.07,0L29,56.28
               a2,2,0,0,0-.51.86L23.68,73.84A2,2,0,0,0,25.6,76.4
               a2,2,0,0,0,.56-.08l16.71-4.85a2,2,0,0,0,.86-.51L77.18,37.51
               a5,5,0,0,0,0-7.07Zm-48.64,41,3.09-10.66,7.56,7.56Z"/>
    </g>
    <!-- Edit card -->
    <g transform="translate(600 0)">
      <path d="M86.99,0H24.01C16.83,0,11,6.02,11,13.42v52.81l4-4V13.42
        C15,8.23,19.04,4,24.01,4h62.99C91.96,4,96,8.23,96,13.42v62.16
        c0,5.19-4.04,9.42-9.01,9.42H37.73l-4,4h53.26
        C94.17,89,100,82.98,100,75.58V13.42C100,6.02,94.17,0,86.99,0z"/>
      <path d="M67.9,41.69l-9.59-9.59c-2.46-2.46-6.44-2.46-8.9,0L7.25,74.21
        c-0.3,0.3-0.52,0.67-0.64,1.08L0.56,96.32
        c-0.39,1.33,0.38,2.73,1.71,3.12c0.23,0.07,0.47,0.1,0.7,0.1
        c0.24,0,0.48-0.03,0.71-0.1l21.03-6.1c0.41-0.12,0.78-0.34,1.08-0.64
        L67.9,50.59C70.36,48.13,70.36,44.15,67.9,41.69z
        M6.68,93.3l3.89-13.42l9.52,9.52L6.68,93.3z"/>
    </g>
    <!-- Lookup -->
    <g transform="translate(700 0)">
      <path d="M49.933,19.679C71.352,5.756,87.283,9.906,100,24.364
        c0,20.883,0,41.767,0,62.65c-9.906,9.772-14.324-22.089-49.397,0.268
        h-1.205C14.19,64.926,9.906,96.787,0,87.015c0-20.884,0-41.767,0-62.65
        C12.717,9.906,28.648,5.756,49.933,19.679z M51.807,26.506
        h-3.614v51.406h3.614V26.506z"/>
    </g>
    <!-- Review -->
    <g transform="translate(800 0)">
      <path d="M87,86.58C87,92.89,82.07,98,75.99,98H13.01
        C6.93,98,2,92.89,2,86.58V24.42C2,18.11,6.93,13,13.01,13
        h62.99C82.07,13,87,18.11,87,24.42V86.58z" fill="none"
        stroke-width="4" stroke="currentColor"/>
      <path d="M86.99,0H24.01c-5.32,0-9.9,3.32-11.91,8.05
        C12.4,8.03,12.7,8,13.01,8h3.65c1.63-2.42,4.32-4,7.35-4h62.99
        C91.96,4,96,8.23,96,13.42v62.16c0,3.26-1.59,6.13-4,7.83
        v3.17c0,0.48-0.03,0.94-0.07,1.41c4.73-2.01,8.07-6.81,8.07-12.41V13.42
        C100,6.02,94.17,0,86.99,0z"/>
    </g>
    <!-- Cross -->
    <g transform="translate(900 0)">
      <path fill="none" stroke="currentColor" stroke-width="20"
        stroke-linecap="round" d="M85 15L15 85M15 15l70 70"/>
    </g>
    <!-- User -->
    <g transform="translate(1000 0)">
      <path d="M64.992 45.781c3.831-3.834 6.2-9.064 6.2-14.912
        0-11.704-9.487-21.16-21.192-21.16-11.704 0-21.192 9.504-21.192 21.208
        0 5.848 2.369 11.021 6.2 14.855C16.515 51.99 3.198 70 3.198
        90h93.605c0-20-13.32-38.002-31.811-44.219z"/>
    </g>
    <!-- Lock -->
    <g transform="translate(1100 0)">
      <path d="M82.81 43H81V32.256C81 15.237 67.02 1.264 50
        1.264c-17.019 0-31 14.063-31 31.08V43h-1.809C11.469 43 7 46.704
        7 52.493v35.814C7 94.096 11.469 99 17.191 99H82.81C88.531 99 93 94.096 93
        88.308V52.493C93 46.704 88.531 43 82.81 43zM32 33v-.976c0-9.958
        8.273-18.094 18.232-18.094C60.19 13.931 68 22.097 68
        32.056V43H32V33z"/>
    </g>
    <!-- Future: Back arrow -->
    <!-- Future: Pause -->
    <!-- Future: Play -->
    <!-- Future: Horizontal ... -->
    <!-- Future: Vertical ... -->
  </g>
  <use y="100" href="#icons" color="#333"/>
  <use y="200" href="#icons" color="#AAA"/>
  <use y="300" href="#icons" color="#2690BA"/>
  <!-- Remove this comment to see the white icon row
  <rect y="400" width="100%" height="100" fill="#2690BA"/>
  -->
  <use y="400" href="#icons" color="white"/>
</svg>
