<svg xmlns="http://www.w3.org/2000/svg" viewBox="0 0 1400 500" width="100%" height="100%">
  <g id="icons" fill="currentColor">
    <!-- Plus -->
    <g>
      <rect x="40" y="10" width="20" height="80" rx="3" ry="3"/>
      <rect x="10" y="40" width="80" height="20" rx="3" ry="3"/>
    </g>
    <!-- Search -->
    <g transform="translate(100 -100)">
      <path d="M87.37,199.62l-23.49-23.49c-6.44,4.21-14.13,6.68-22.43,6.68
        c-22.64,0-40.95-18.35-40.95-40.99c0-22.6,18.31-40.94,40.95-40.94
        c22.6,0,40.94,18.35,40.94,40.94c0,7.9-2.22,15.27-6.07,21.5l23.66,23.65
        c1.25,1.22,0.2,4.25-2.31,6.76l-3.52,3.53
        C91.62,199.78,88.59,200.83,87.37,199.62L87.37,199.62z M68.78,141.82
        c0-15.11-12.23-27.34-27.34-27.34c-15.11,0-27.38,12.23-27.38,27.34
        s12.27,27.38,27.38,27.38C56.55,169.2,68.78,156.93,68.78,141.82z"/>
    </g>
    <!-- Sync -->
    <g transform="translate(200 0)">
      <path d="M87.6 34.7C81.3 20.2 67 10.9 51.2 10.9c-17.7 0-32.7 11.5-37.8 27.3l-1.9-3.6c-1.1-2-3.7-2.8-5.7-1.7S3 36.6 4.1 38.6l7.5 13.8c.6 1.1 1.7 1.9 3 2.1h.7c.8 0 1.6-.3 2.3-.7.6-.3 1.1-.8 1.5-1.3l11.9-11c1.7-1.6 1.8-4.2.2-5.9-1.6-1.7-4.2-1.8-5.9-.2L22.6 38c4.8-11 15.9-18.7 28.8-18.7 12.5 0 23.7 7.4 28.7 18.8.9 2.1 3.4 3.1 5.5 2.2 2-1 3-3.4 2-5.6zm8.3 26.7l-7.5-13.8c-.6-1.1-1.7-1.9-3-2.1-1-.2-2 .1-2.9.6-.6.3-1.2.8-1.6 1.4L69 58.5c-1.7 1.6-1.8 4.2-.2 5.9 1.6 1.7 4.2 1.8 5.9.2l2.7-2.6c-4.8 11-15.9 18.7-28.8 18.7-12.5 0-23.7-7.4-28.7-18.8-.9-2.1-3.4-3.1-5.5-2.2-2.1.9-3.1 3.4-2.2 5.5C18.5 79.7 32.8 89 48.6 89c17.7 0 32.7-11.5 37.8-27.3l1.9 3.6c.8 1.4 2.2 2.2 3.7 2.2.7 0 1.4-.2 2-.5 2.2-1 3-3.6 1.9-5.6z"/>
    </g>
    <!-- Bin -->
    <g transform="translate(300 0)" fill="none" stroke="currentColor"
      stroke-width="5" stroke-linecap="round">
      <line x1="2.601" y1="20.206" x2="97.398" y2="20.206"/>
      <path d="M8.421,13.864c0-4.676,1.465-10.873,10.226-10.844
              c6.818,0.022,56.71-0.029,61.664-0.029c8.301,0,11.268,
              3.684,11.268,10.873"/>
      <path d="M15.299,26.281c0,0,5.161,59.847,5.761,63.939S25.486,97,29.008,97
              s39.546,0,43.068,0s7.064-2.926,7.494-6.78s4.129-63.939,
              4.129-63.939"/>
      <line x1="40.75" y1="28.5" x2="40.75" y2="83"/>
      <line x1="59.45" y1="28.5" x2="59.45" y2="83"/>
    </g>
    <!-- Add card -->
    <g transform="translate(400 0)">
      <path d="M67.06,56.46H43.54V32.94c0-1.44-1.17-2.61-2.61-2.61
        H28.74c-1.44,0-2.61,1.17-2.61,2.61v23.52H2.61
        C1.17,56.46,0,57.63,0,59.07v12.19c0,1.45,1.17,2.61,2.61,2.61
        h23.52v23.52c0,1.45,1.17,2.61,2.61,2.61h12.19
        c1.44,0,2.61-1.16,2.61-2.61V73.87h23.52c1.45,0,2.61-1.16,2.61-2.61
        V59.07C69.67,57.63,68.51,56.46,67.06,56.46z"/>
      <path d="M23.128,85h-0.121c-4.321,0-7.845-3.622-7.992-8.13h-6
        C9.167,84.687,15.379,91,23.007,91h0.121V85z"/>
      <path d="M85.992,0H23.007C15.284,0,9,6.469,9,14.42v39.041h6V14.42
        C15,9.777,18.592,6,23.007,6h62.985C90.407,6,94,9.777,94,14.42
        v62.16c0,4.643-3.593,8.42-8.008,8.42H46.544v6h39.448
        C93.716,91,100,84.531,100,76.58V14.42C100,6.469,93.716,0,85.992,0z"/>
    </g>
    <!-- Edit -->
    <g transform="translate(550 50) scale(1.7) translate(-50 -50)">
      <path d="M77.18,30.44l-7.62-7.62a5,5,0,0,0-7.07,0L29,56.28
               a2,2,0,0,0-.51.86L23.68,73.84A2,2,0,0,0,25.6,76.4
               a2,2,0,0,0,.56-.08l16.71-4.85a2,2,0,0,0,.86-.51L77.18,37.51
               a5,5,0,0,0,0-7.07Zm-48.64,41,3.09-10.66,7.56,7.56Z"/>
    </g>
    <!-- Edit card -->
    <g transform="translate(600 0)">
      <path d="M85.99,0H23.01C15.28,0,9,6.47,9,14.42v53.81l6-5.99
        V14.42C15,9.78,18.59,6,23.01,6h62.99C90.41,6,94,9.78,94,14.42v62.16
        c0,4.64-3.59,8.42-8.01,8.42H37.73l-6,6h54.26
        C93.72,91,100,84.53,100,76.58V14.42C100,6.47,93.72,0,85.99,0z"/>
      <path d="M67.9,41.69l-9.59-9.59c-2.46-2.46-6.44-2.46-8.9,0L7.25,74.21
        c-0.3,0.3-0.52,0.67-0.64,1.08L0.56,96.32
        c-0.39,1.33,0.38,2.73,1.71,3.12c0.23,0.07,0.47,0.1,0.7,0.1
        c0.24,0,0.48-0.03,0.71-0.1l21.03-6.1c0.41-0.12,0.78-0.34,1.08-0.64
        L67.9,50.59C70.36,48.13,70.36,44.15,67.9,41.69z
        M6.68,93.3l3.89-13.42l9.52,9.52L6.68,93.3z"/>
    </g>
    <!-- Lookup -->
    <g transform="translate(700 0)">
      <path d="M96.75,92.12c-0.52,0-1.01-0.12-1.47-0.36l-6.96-3.58
        c-4.61-2.35-9.77-3.59-14.93-3.59s-10.33,1.24-14.93,3.58l-6.97,3.59
        l-0.1,0.05l-0.2,0.08l-0.21,0.07l-0.16,0.04l-0.16,0.03h-0.71
        c-0.19,0-0.42-0.03-0.64-0.08l-0.17-0.04h-0.11
        c-0.16-0.05-0.31-0.11-0.45-0.18l-0.33-0.17h-0.06l-6.63-3.41
        c-4.61-2.35-9.77-3.59-14.93-3.59c-5.17,0-10.33,1.24-14.93,3.58
        l-6.97,3.59c-0.46,0.23-0.97,0.36-1.49,0.36C1.45,92.1,0,90.65,0,88.86
        v-70.2c0-1.22,0.69-2.33,1.8-2.88l6.98-3.59
        c5.5-2.8,11.69-4.29,17.87-4.29c6.19,0,12.37,1.48,17.88,4.29l5.5,2.74
        l5.49-2.73C61.03,9.38,67.21,7.9,73.4,7.9
        c6.19,0,12.37,1.48,17.88,4.29l6.96,3.58c1.09,0.56,1.77,1.66,1.76,2.89
        v70.2c0,0.52-0.12,1.04-0.36,1.5
        C99.09,91.44,97.98,92.12,96.75,92.12L96.75,92.12z M73.38,78.15
        c6.19,0,12.37,1.48,17.88,4.29l2.25,1.15V20.63l-5.19-2.65
        c-4.6-2.35-9.76-3.58-14.93-3.58s-10.33,1.24-14.93,3.58l-5.21,2.65
        v62.96l2.25-1.15C61.01,79.63,67.19,78.15,73.38,78.15z
        M26.62,78.15c6.19,0,12.37,1.48,17.88,4.29l2.25,1.15V20.63l-5.19-2.65
        c-4.6-2.35-9.76-3.58-14.93-3.58
        c-5.17,0-10.33,1.24-14.93,3.58L6.5,20.63v62.96l2.25-1.15
        C14.26,79.63,20.44,78.15,26.62,78.15z"/>
    </g>
    <!-- Review -->
    <g transform="translate(800 0)">
      <path fill="none" stroke="currentColor" stroke-width="6"
        d="M88,85.58C88,91.89,83.07,97,76.99,97H14.01
        C7.93,97,3,91.89,3,85.58V23.42C3,17.11,7.93,12,14.01,12
        h62.99C83.07,12,88,17.11,88,23.42V85.58z"/>
      <path d="M85.99,0H23.01c-4.76,0-8.97,2.46-11.5,6.21
        C12.33,6.09,13.16,6,14.01,6h9h53.99h9C90.41,6,94,9.78,94,14.42v9
        v53.16v9c0,1.03-0.1,2.03-0.27,3.01c3.78-2.59,6.27-7,6.27-12.01
        V14.42C100,6.47,93.72,0,85.99,0z"/>
    </g>
    <!-- Cross -->
    <g transform="translate(900 0)">
      <path fill="none" stroke="currentColor" stroke-width="20"
        stroke-linecap="round" d="M85 15L15 85M15 15l70 70"/>
    </g>
    <!-- User -->
    <g transform="translate(1000 0)">
      <path d="M64.992 45.781c3.831-3.834 6.2-9.064 6.2-14.912
        0-11.704-9.487-21.16-21.192-21.16-11.704 0-21.192 9.504-21.192 21.208
        0 5.848 2.369 11.021 6.2 14.855C16.515 51.99 3.198 70 3.198
        90h93.605c0-20-13.32-38.002-31.811-44.219z"/>
    </g>
    <!-- Lock -->
    <g transform="translate(1100 0)">
      <path d="M82.81 43H81V32.256C81 15.237 67.02 1.264 50
        1.264c-17.019 0-31 14.063-31 31.08V43h-1.809C11.469 43 7 46.704
        7 52.493v35.814C7 94.096 11.469 99 17.191 99H82.81C88.531 99 93 94.096 93
        88.308V52.493C93 46.704 88.531 43 82.81 43zM32 33v-.976c0-9.958
        8.273-18.094 18.232-18.094C60.19 13.931 68 22.097 68
        32.056V43H32V33z"/>
    </g>
    <!-- Play -->
    <g transform="translate(1200 0)">
      <path d="M0 10l80 40l-80 40v-60" />
    </g>
    <!-- Pause -->
    <g transform="translate(1300 0)">
      <path d="M20 0h20v100h-20v-100M60 0h20v100h-20v-100"/>
    </g>
    <!-- Future: Back arrow -->
    <!-- Future: Pause -->
    <!-- Future: Play -->
    <!-- Future: Horizontal ... -->
    <!-- Future: Vertical ... -->
  </g>
  <use y="100" href="#icons" color="#333"/>
  <use y="200" href="#icons" color="#AAA"/>
  <use y="300" href="#icons" color="#2690BA"/>
  <!-- Remove this comment to see the white icon row
  <rect y="400" width="100%" height="100" fill="#2690BA"/>
  -->
  <use y="400" href="#icons" color="white"/>
</svg>
