<svg xmlns="http://www.w3.org/2000/svg" viewBox="0 0 2200 100" width="100%" height="100%">
  <!-- Sync (grey, hollow) -->
  <view id="sync" viewBox="0 0 100 100"/>
  <path fill="#FFF" stroke="#AAA" stroke-width="4" stroke-miterlimit="10" d="M87.6 34.7C81.3 20.2 67 10.9 51.2 10.9c-17.7 0-32.7 11.5-37.8 27.3l-1.9-3.6c-1.1-2-3.7-2.8-5.7-1.7S3 36.6 4.1 38.6l7.5 13.8c.6 1.1 1.7 1.9 3 2.1h.7c.8 0 1.6-.3 2.3-.7.6-.3 1.1-.8 1.5-1.3l11.9-11c1.7-1.6 1.8-4.2.2-5.9-1.6-1.7-4.2-1.8-5.9-.2L22.6 38c4.8-11 15.9-18.7 28.8-18.7 12.5 0 23.7 7.4 28.7 18.8.9 2.1 3.4 3.1 5.5 2.2 2-1 3-3.4 2-5.6zm8.3 26.7l-7.5-13.8c-.6-1.1-1.7-1.9-3-2.1-1-.2-2 .1-2.9.6-.6.3-1.2.8-1.6 1.4L69 58.5c-1.7 1.6-1.8 4.2-.2 5.9 1.6 1.7 4.2 1.8 5.9.2l2.7-2.6c-4.8 11-15.9 18.7-28.8 18.7-12.5 0-23.7-7.4-28.7-18.8-.9-2.1-3.4-3.1-5.5-2.2-2.1.9-3.1 3.4-2.2 5.5C18.5 79.7 32.8 89 48.6 89c17.7 0 32.7-11.5 37.8-27.3l1.9 3.6c.8 1.4 2.2 2.2 3.7 2.2.7 0 1.4-.2 2-.5 2.2-1 3-3.6 1.9-5.6z"/>
  <!-- Ok overlay -->
  <view id="overlay-ok" viewBox="100 0 100 100"/>
  <circle fill="#73B371" cx="150" cy="50" r="40"/>
  <path fill="none" stroke="#FFF" stroke-width="10.479" stroke-linecap="round" stroke-linejoin="round" stroke-miterlimit="10" d="M127.4 54.5L145 69l23.5-36.2"/>
  <!-- Error overlay -->
  <view id="overlay-error" viewBox="200 0 100 100"/>
  <circle fill="#D17171" cx="250" cy="50" r="40"/>
  <path fill="#FFF" d="M241.9 71.2c0-4 3.4-6.9 8.4-6.9 4.9 0 8.2 2.9 8.3 6.9 0 3.9-3.2 6.9-8.3 6.9s-8.4-3-8.4-6.9zm3.1-13L242.8 24h14.8l-2 34.3H245z"/>
  <!-- Offline overlay -->
  <view id="overlay-offline" viewBox="300 0 100 100"/>
  <circle fill="#DDB926" cx="350" cy="50" r="40"/>
  <g fill="#FFF">
    <circle cx="350" cy="70.7" r="7.4"/>
    <path d="M319.3 47.5c-.7 0-1.5-.3-2.1-.8-1.4-1.2-1.5-3.2-.4-4.6 8.1-9.4 19.8-14.8 32.1-14.8s23.9 5.4 32 14.7c1.2 1.4 1 3.4-.3 4.6-1.4 1.2-3.4 1-4.6-.3-6.8-7.9-16.7-12.4-27.1-12.4-10.5 0-20.4 4.6-27.2 12.6-.5.6-1.4 1-2.4 1z"/>
    <path d="M327 56.5c-.7 0-1.5-.3-2.1-.8-1.4-1.2-1.5-3.2-.4-4.6 6.1-7.2 15-11.3 24.5-11.3 9.4 0 18.2 4.1 24.4 11.2 1.2 1.4 1 3.4-.4 4.6-1.4 1.2-3.4 1-4.6-.4-4.9-5.7-11.9-9-19.4-9-7.5 0-14.6 3.3-19.5 9-.6.9-1.5 1.3-2.5 1.3z"/>
    <path d="M335.4 63.8c-.7 0-1.5-.2-2.1-.8-1.4-1.1-1.6-3.2-.4-4.6 4-4.8 9.9-7.6 16.1-7.6 6.2 0 12 2.7 16 7.5 1.2 1.4 1 3.4-.4 4.6-1.4 1.2-3.4 1-4.6-.4-2.7-3.3-6.8-5.2-11-5.2-4.3 0-8.3 1.9-11.1 5.2-.6.9-1.5 1.3-2.5 1.3z"/>
  </g>
  <path fill="none" stroke="#DDB926" stroke-width="13.672" stroke-linecap="round" stroke-miterlimit="10" d="M329.1 72.8L366.4 23"/>
  <path fill="none" stroke="#FFF" stroke-width="4.557" stroke-linecap="round" stroke-miterlimit="10" d="M329.1 72.8L366.4 23"/>
  <!-- Pause overlay -->
  <view id="overlay-pause" viewBox="400 0 100 100"/>
  <circle fill="#BF97C4" cx="450" cy="50" r="40"/>
  <path fill="none" stroke="#FFF" stroke-width="12" stroke-miterlimit="10" d="M438 26v48m22-48v48"/>
  <!-- Dots -->
  <view id="dots" viewBox="500 0 100 100"/>
  <g fill="#FFF" stroke="#AAA" stroke-width="4" stroke-miterlimit="10">
    <circle cx="550.1" cy="50.4" r="8.1"/>
    <circle cx="550.1" cy="25.4" r="8.1"/>
    <circle cx="550.1" cy="75.4" r="8.1"/>
  </g>
  <!-- Cog -->
  <view id="settings" viewBox="600 0 100 100"/>
  <path fill="#FFF" stroke="#AAA" stroke-width="5" stroke-miterlimit="10" d="M695.9 41.5c-2.1-2.1-6-.9-8.6-1.5-3.6-.8-4.6-4-6-7.1-1.4-3.4 1-5.1 2.1-8.1.9-2.6 2.6-3.7 1.2-6.7-.9-1.9-3.4-4.6-5.7-4.6-2.3-.1-5.5 5-7.9 5.6-3.8 1-9.2-1.3-10.7-4.4-2-4.2.6-10.3-5.7-10.7-2.5-.2-4.5-.5-5.5.3-1.5 1.3-1.4 4.3-2.6 7-1 2.4-3.2 4.1-5.4 5.2-2.1 1-4.1 1.5-6.5-.1-3.7-2.4-5.4-8-10.8-4.4-1.9 1.3-4.3 2.1-4.3 4.5s3.2 6 3.2 8.3c-.1 4-1.3 6.7-5.1 8.9-2.4 1.4-6.9.5-9.6.5-2.4-.1-3.7 1.3-3.9 6.9-.2 6.7 10.6 3.5 10.2 11.4-.2 3.6 1.4 6-1.4 8.6-2.1 1.9-6.8 2.8-6.4 6 .4 3.7 2.3 7 4.4 7.4 2.5.4 5.7-1.7 8.4-1.2 2.8.5 8.4 2.9 8.8 6.6.4 3.3-1.5 7.1-.7 10.3.9 3.9 4.7 5.2 8.2 4.2 1.5-.5 2.8-2.4 3.5-4.2.6-1.6 1.9-3.4 3.4-4.2 3.9-1.9 9.5-.1 11.3 4.1.7 1.7 2.4 5.3 4.5 5.8.9.2 5.3.7 8.1-1.3s-1.2-7.9 1.3-12.7c1.4-2.7 5-5.1 7.9-5.2s5 2.5 6.8 3c6.1 1.8 9.4-6.8 6.7-10.6-1.2-1.7-4.7-2.9-5.4-4.7-.5-1.2.7-3.8 1-5.5.9-6.5 9-5.7 11.7-8.9 1-1.5.7-7.2-.5-8.5zm-45.6 25.3c-8.6 0-15.5-7-15.5-15.5s7-15.5 15.5-15.5c8.6 0 15.5 7 15.5 15.5s-6.9 15.5-15.5 15.5z"/>
  <!-- Hollow -->
  <view id="sync-hollow" viewBox="700 0 100 100"/>
  <path fill="none" stroke="#2690BA" stroke-width="3" stroke-miterlimit="10" d="M788.5 34.4c-6.4-14.9-21-24.4-37.2-24.4-18.1 0-33.5 11.7-38.7 27.9l-2-3.6c-1.1-2.1-3.7-2.9-5.8-1.7-2.1 1.1-2.9 3.7-1.7 5.8l7.7 14.1c.6 1.2 1.8 2 3.1 2.2.2 0 .5.1.7.1.8 0 1.7-.3 2.4-.7.6-.3 1.2-.8 1.6-1.4l12.1-11.4c1.7-1.6 1.8-4.3.2-6.1-1.6-1.7-4.3-1.8-6.1-.2l-2.8 2.6c4.9-11.2 16.3-19.1 29.5-19.1 12.8 0 24.3 7.6 29.4 19.3.9 2.2 3.5 3.2 5.7 2.2 1.9-.9 2.9-3.5 1.9-5.6zm8.5 27.3l-7.7-14.1c-.6-1.2-1.8-2-3.1-2.2-1-.2-2.1.1-3 .6-.7.3-1.2.8-1.6 1.4l-12.1 11.4c-1.7 1.6-1.8 4.3-.2 6.1 1.6 1.7 4.3 1.8 6.1.2l2.8-2.6c-4.9 11.2-16.3 19.1-29.5 19.1-12.8 0-24.3-7.6-29.4-19.3-.9-2.2-3.5-3.2-5.7-2.2-2.2.9-3.2 3.5-2.2 5.7 6.5 14.8 21.1 24.4 37.2 24.4 18.1 0 33.5-11.7 38.7-27.9l2 3.6c.8 1.4 2.3 2.2 3.8 2.2.7 0 1.4-.2 2.1-.5 2.1-1.3 2.9-3.9 1.8-5.9z"/>
  <!-- Filled -->
  <view id="sync-full" viewBox="800 0 100 100"/>
  <path fill="#2690BA" d="M888.1 34.5c-6.4-14.7-20.9-24.2-36.9-24.2-17.9 0-33.1 11.6-38.3 27.6l-2-3.6c-1.1-2.1-3.7-2.8-5.8-1.7s-2.8 3.7-1.7 5.8l7.6 14c.6 1.2 1.8 2 3.1 2.2.2 0 .4.1.7.1.8 0 1.7-.3 2.4-.7.6-.3 1.2-.8 1.5-1.4l11.9-11.2c1.7-1.6 1.8-4.3.2-6-1.6-1.7-4.3-1.8-6-.2l-2.8 2.6c4.9-11.1 16.1-18.9 29.2-18.9 12.6 0 24 7.5 29.1 19 .9 2.2 3.4 3.1 5.6 2.2 2.2-.9 3.2-3.4 2.2-5.6zm8.4 27l-7.6-14c-.6-1.2-1.8-2-3.1-2.2-1-.2-2.1.1-2.9.6-.7.3-1.2.8-1.6 1.4l-11.9 11.2c-1.7 1.6-1.8 4.3-.2 6 1.6 1.7 4.3 1.8 6 .2l2.8-2.6C873.1 73.2 861.9 81 848.8 81c-12.6 0-24-7.5-29.1-19.1-.9-2.2-3.4-3.1-5.6-2.2-2.2.9-3.1 3.4-2.2 5.6 6.4 14.7 20.9 24.2 36.9 24.2 17.9 0 33.1-11.6 38.3-27.6l2 3.6c.8 1.4 2.2 2.2 3.7 2.2.7 0 1.4-.2 2-.5 2-1 2.8-3.6 1.7-5.7z"/>
  <!-- Pause -->
  <view id="sync-pause" viewBox="900 0 100 100"/>
  <g fill="none" stroke="#3D3D3D" stroke-width="1.53" stroke-miterlimit="10">
    <path d="M988.5 35.6c-.1-.4-.2-.7-.3-1.1-.2-.4-.3-.7-.5-1"/>
    <path stroke-dasharray="2.3317,1.5545" d="M987 32.1c-6.9-13.3-20.6-21.7-35.7-21.7-17.2 0-31.9 10.7-37.7 25.8"/>
    <path d="M913.3 36.9c-.1.4-.3.7-.4 1.1l-.5-1"/>
    <path stroke-dasharray="2.2794,1.5196" d="M911.7 35.7l-.7-1.3c-1.1-2.1-3.7-2.8-5.8-1.7-2.1 1.1-2.8 3.7-1.7 5.8l7.6 14c.6 1.2 1.8 2 3.1 2.2.2 0 .4.1.7.1.8 0 1.7-.3 2.4-.7.6-.3 1.2-.8 1.5-1.4l11.9-11.2c1.7-1.6 1.8-4.3.2-6-1.6-1.7-4.3-1.8-6-.2l-1.4 1.3"/>
    <path d="M923 37l-.8.8c.2-.4.3-.7.5-1"/>
    <path stroke-dasharray="2.2651,1.5101" d="M923.3 35.4c5.4-9.8 15.9-16.5 28-16.5 12.6 0 24 7.5 29.1 19 .9 2.2 3.4 3.1 5.6 2.2 1.5-.7 2.5-2.2 2.6-3.7"/>
    <path d="M996.9 62.6c-.1-.4-.2-.7-.4-1.1l-.5-1"/>
    <path stroke-dasharray="2.3442,1.5628" d="M995.2 59.2l-6.3-11.6c-.6-1.2-1.8-2-3.1-2.2-1-.2-2.1.1-2.9.6-.7.3-1.2.8-1.6 1.4l-11.9 11.2c-1.7 1.6-1.8 4.3-.2 6 1.6 1.7 4.3 1.8 6 .2l1.4-1.3"/>
    <path d="M977 63l.8-.8c-.2.4-.3.7-.5 1"/>
    <path stroke-dasharray="2.2997,1.5332" d="M976.7 64.6c-5.4 9.8-15.9 16.5-28 16.5-12.6 0-24-7.5-29.1-19.1-.9-2.2-3.4-3.1-5.6-2.2-2.2.9-3.1 3.4-2.2 5.6 6.4 14.7 20.9 24.2 36.9 24.2 17.2 0 32-10.7 37.7-25.8"/>
    <path d="M986.7 63.1c.1-.4.3-.7.4-1.1l.5 1"/>
    <path stroke-dasharray="2.0656,1.377" d="M988.3 64.2l.8 1.4c.8 1.4 2.2 2.2 3.7 2.2.7 0 1.4-.2 2-.5 1.5-.8 2.3-2.4 2.2-4"/>
  </g>
  <path opacity=".7" d="M922.3 23.5h21.6V80h-21.6zm31.8 0h21.6V80h-21.6z" fill="#2690BA"/>
  <!-- Offline -->
  <view id="sync-offline" viewBox="1000 0 100 100"/>
  <g fill="none" stroke="#3D3D3D" stroke-width="1.546" stroke-miterlimit="10">
    <path d="M1088.9 35.5c-.1-.4-.2-.7-.3-1.1-.2-.4-.3-.7-.5-1.1"/>
    <path stroke-dasharray="2.3565,1.571" d="M1087.4 31.9c-6.9-13.4-20.8-21.9-36.1-21.9-17.4 0-32.3 10.9-38.1 26.1"/>
    <path d="M1012.9 36.8c-.1.4-.3.7-.4 1.1l-.6-1"/>
    <path stroke-dasharray="2.3037,1.5358" d="M1011.3 35.5l-.7-1.3c-1.1-2.1-3.7-2.9-5.8-1.7-2.1 1.1-2.9 3.7-1.7 5.8l7.7 14.1c.6 1.2 1.8 2 3.1 2.2.2 0 .5.1.7.1.8 0 1.7-.3 2.4-.7.6-.3 1.2-.8 1.6-1.4l12.1-11.4c1.7-1.6 1.8-4.3.2-6.1-1.6-1.7-4.3-1.8-6.1-.2l-1.4 1.3"/>
    <path d="M1022.7 36.8l-.8.8c.2-.4.3-.7.5-1.1"/>
    <path stroke-dasharray="2.2892,1.5261" d="M1023 35.2c5.4-9.9 16.1-16.7 28.3-16.7 12.8 0 24.3 7.6 29.4 19.3.9 2.2 3.5 3.2 5.7 2.2 1.6-.7 2.5-2.2 2.6-3.8"/>
    <path d="M1097.4 62.7c-.1-.4-.2-.7-.4-1.1l-.6-1"/>
    <path stroke-dasharray="2.3692,1.5794" d="M1095.7 59.2l-6.4-11.7c-.6-1.2-1.8-2-3.1-2.2-1-.2-2.1.1-3 .6-.7.3-1.2.8-1.6 1.4l-12.1 11.4c-1.7 1.6-1.8 4.3-.2 6.1 1.6 1.7 4.3 1.8 6.1.2l1.4-1.3"/>
    <path d="M1077.3 63.2l.8-.8c-.2.4-.3.7-.5 1.1"/>
    <path stroke-dasharray="2.3242,1.5495" d="M1077 64.8c-5.4 9.9-16.1 16.7-28.3 16.7-12.8 0-24.3-7.6-29.4-19.3-.9-2.2-3.5-3.2-5.7-2.2-2.2.9-3.2 3.5-2.2 5.7 6.5 14.8 21.1 24.4 37.2 24.4 17.4 0 32.3-10.9 38.1-26.1"/>
    <path d="M1087.1 63.2c.1-.4.3-.7.4-1.1l.6 1"/>
    <path stroke-dasharray="2.0875,1.3917" d="M1088.7 64.4l.8 1.4c.8 1.4 2.3 2.2 3.8 2.2.7 0 1.4-.2 2.1-.5 1.5-.8 2.3-2.4 2.2-4.1"/>
  </g>
  <g opacity=".7">
    <circle fill="#2690BA" cx="1050.7" cy="50.2" r="25"/>
    <g fill="#FFF">
      <circle cx="1050.7" cy="63.1" r="4.6"/>
      <path d="M1032 48.9c-.5 0-.9-.2-1.3-.5-.9-.7-1-2-.2-2.9 5-5.9 12.3-9.3 20-9.3 7.7 0 14.9 3.3 20 9.2.7.8.6 2.1-.2 2.9-.8.7-2.1.6-2.9-.2-4.3-4.9-10.4-7.8-16.9-7.8-6.5 0-12.7 2.9-17 7.8-.4.6-.9.8-1.5.8z"/>
      <path d="M1036.8 54.5c-.5 0-.9-.2-1.3-.5-.9-.7-1-2-.2-2.9 3.8-4.5 9.4-7.1 15.3-7.1 5.8 0 11.4 2.6 15.2 7 .7.9.6 2.1-.2 2.9-.9.7-2.1.6-2.9-.2-3-3.6-7.5-5.6-12.1-5.6-4.7 0-9.1 2.1-12.2 5.6-.5.5-1 .8-1.6.8z"/>
      <path d="M1042 59.1c-.5 0-.9-.2-1.3-.5-.9-.7-1-2-.3-2.9 2.5-3 6.1-4.7 10-4.7 3.9 0 7.5 1.7 10 4.7.7.9.6 2.1-.3 2.9-.9.7-2.1.6-2.9-.3-1.7-2-4.2-3.2-6.9-3.2s-5.2 1.2-6.9 3.2c-.2.5-.8.8-1.4.8z"/>
    </g>
    <path fill="none" stroke="#2690BA" stroke-width="7.73" stroke-linecap="round" stroke-miterlimit="10" d="M1038.1 64.7l23.2-31.1"/>
    <path fill="none" stroke="#FFF" stroke-width="3.865" stroke-linecap="round" stroke-miterlimit="10" d="M1038.1 64.7l23.2-31.1"/>
  </g>
  <!-- Error -->
  <view id="sync-error" viewBox="1100 0 100 100"/>
  <g fill="#2690BA">
    <path d="M1197.1 64.9c-7.1-16.3-23.2-26.8-41-26.8-19.9 0-36.8 12.9-42.6 30.7l-2.2-4c-1.2-2.3-4.1-3.1-6.4-1.9-2.3 1.2-3.1 4.1-1.9 6.4l8.5 15.5c.7 1.3 2 2.2 3.4 2.4.2 0 .5.1.7.1.9 0 1.8-.3 2.6-.8.7-.4 1.3-.9 1.7-1.5l13.3-12.5c1.9-1.8 2-4.8.2-6.7-1.8-1.9-4.8-2-6.7-.2l-3.1 2.9c5.4-12.3 17.9-21 32.4-21 14 0 26.7 8.3 32.3 21.2 1 2.4 3.8 3.5 6.2 2.4 2.6-1 3.6-3.8 2.6-6.2z"/>
    <circle cx="1136.1" cy="20.3" r="7.6"/>
    <circle cx="1171.8" cy="20.3" r="7.6"/>
  </g>
  <!-- Cross -->
  <view id="cross" viewBox="1200 0 100 100"/>
  <g transform="translate(1200 0)">
    <path fill="none" stroke="#AAA" stroke-width="20" stroke-linecap="round"
      d="M85 15L15 85M15 15l70 70"/>
  </g>
  <!-- User -->
  <view id="user" viewBox="1300 0 100 100"/>
  <g transform="translate(1300 0)">
    <path fill="#AAA" d="M64.992 45.781c3.831-3.834 6.2-9.064 6.2-14.912
      0-11.704-9.487-21.16-21.192-21.16-11.704 0-21.192 9.504-21.192 21.208
      0 5.848 2.369 11.021 6.2 14.855C16.515 51.99 3.198 70 3.198
      90h93.605c0-20-13.32-38.002-31.811-44.219z"/>
  </g>
  <!-- Lock -->
  <view id="lock" viewBox="1400 0 100 100"/>
  <g transform="translate(1400 0)">
    <path fill="#AAA" d="M82.81 43H81V32.256C81 15.237 67.02 1.264 50
      1.264c-17.019 0-31 14.063-31 31.08V43h-1.809C11.469 43 7 46.704
      7 52.493v35.814C7 94.096 11.469 99 17.191 99H82.81C88.531 99 93 94.096 93
      88.308V52.493C93 46.704 88.531 43 82.81 43zM32 33v-.976c0-9.958
      8.273-18.094 18.232-18.094C60.19 13.931 68 22.097 68
      32.056V43H32V33z"/>
  </g>
  <!-- Review -->
  <view id="review" viewBox="1500 0 100 100"/>
  <g transform="translate(1500 0)" fill="white">
    <path d="M71.7,86H12C5.4,86,0,80.6,0,74V12C0,5.4,5.4,0,12,0
      h59.7c6.6,0,12,5.4,12,12v62C83.7,80.6,78.3,86,71.7,86z"/>
    <path d="M88.7,14.1V79c0,6.6-5.4,12-12,12H16.4c1.3,5.2,6,9,11.6,9
      h59.7c6.6,0,12-5.4,12-12V26C99.7,19.7,94.8,14.6,88.7,14.1z"/>
  </g>
  <!-- Add / Lookups -->
  <view id="add-lookup" viewBox="1600 0 100 100"/>
  <g transform="translate(1600 0)" fill="white">
    <path d="M0,59c8.3-8.3,23.5-8.3,31.1,0v41c-8.3-6.1-22-6.1-31.1,0V59z"/>
    <path d="M97.3,23.1H77.4V3.2c0-2-1.7-3.7-3.7-3.7
      H62.3c-2,0-3.7,1.7-3.7,3.7v19.9H38.7c-2,0-3.7,1.7-3.7,3.7v11.4
      c0,2,1.7,3.7,3.7,3.7h19.9v19.9c0,2,1.7,3.7,3.7,3.7
      h11.4c2,0,3.7-1.7,3.7-3.7V41.9h19.9c2,0,3.7-1.7,3.7-3.7V26.8
      C101,24.8,99.3,23.1,97.3,23.1z"/>
    <path d="M58.3,69.5c-2,0-3.7-1.7-3.7-3.7
      V53.3c-7.2-1.5-15.4,0.4-20.8,5.7v41c9.1-6.1,22.8-6.1,31.1,0V69.5H58.3z"/>
  </g>
  <!-- Rubbish bin -->
  <view id="bin" viewBox="1700 0 100 100"/>
  <g transform="translate(1700 0)" fill="none" stroke="#2690BA"
    stroke-width="5" stroke-linecap="round">
    <line x1="2.601" y1="20.206" x2="97.398" y2="20.206"/>
    <path d="M8.421,13.864c0-4.676,1.465-10.873,10.226-10.844
             c6.818,0.022,56.71-0.029,61.664-0.029c8.301,0,11.268,
             3.684,11.268,10.873"/>
    <path d="M15.299,26.281c0,0,5.161,59.847,5.761,63.939S25.486,97,29.008,97
             s39.546,0,43.068,0s7.064-2.926,7.494-6.78s4.129-63.939,
             4.129-63.939"/>
    <line x1="40.75" y1="28.5" x2="40.75" y2="83"/>
    <line x1="59.45" y1="28.5" x2="59.45" y2="83"/>
  </g>
  <!-- Plus (white) -->
  <view id="plus-white" viewBox="1800 0 100 100"/>
  <g transform="translate(1800 0)" fill="white">
    <rect x="40" y="10" width="20" height="80" rx="3" ry="3"/>
    <rect x="10" y="40" width="80" height="20" rx="3" ry="3"/>
  </g>
  <!-- Plus -->
  <view id="plus" viewBox="1900 0 100 100"/>
  <g transform="translate(1900 0)" fill="#2690BA">
    <rect x="40" y="10" width="20" height="80" rx="3" ry="3"/>
    <rect x="10" y="40" width="80" height="20" rx="3" ry="3"/>
  </g>
  <!-- Search -->
  <view id="search" viewBox="2000 0 100 100"/>
  <g transform="translate(2000 -100)" fill="#AAA">
    <path d="M87.37,199.62l-23.49-23.49c-6.44,4.21-14.13,6.68-22.43,6.68
      c-22.64,0-40.95-18.35-40.95-40.99c0-22.6,18.31-40.94,40.95-40.94
      c22.6,0,40.94,18.35,40.94,40.94c0,7.9-2.22,15.27-6.07,21.5l23.66,23.65
      c1.25,1.22,0.2,4.25-2.31,6.76l-3.52,3.53
      C91.62,199.78,88.59,200.83,87.37,199.62L87.37,199.62z M68.78,141.82
      c0-15.11-12.23-27.34-27.34-27.34c-15.11,0-27.38,12.23-27.38,27.34
      s12.27,27.38,27.38,27.38C56.55,169.2,68.78,156.93,68.78,141.82z"/>
  </g>
  <!-- Sync (white) -->
  <view id="sync-white" viewBox="2100 0 100 100"/>
  <path fill="#FFF" transform="translate(2100 0)" d="M87.6 34.7C81.3 20.2 67 10.9 51.2 10.9c-17.7 0-32.7 11.5-37.8 27.3l-1.9-3.6c-1.1-2-3.7-2.8-5.7-1.7S3 36.6 4.1 38.6l7.5 13.8c.6 1.1 1.7 1.9 3 2.1h.7c.8 0 1.6-.3 2.3-.7.6-.3 1.1-.8 1.5-1.3l11.9-11c1.7-1.6 1.8-4.2.2-5.9-1.6-1.7-4.2-1.8-5.9-.2L22.6 38c4.8-11 15.9-18.7 28.8-18.7 12.5 0 23.7 7.4 28.7 18.8.9 2.1 3.4 3.1 5.5 2.2 2-1 3-3.4 2-5.6zm8.3 26.7l-7.5-13.8c-.6-1.1-1.7-1.9-3-2.1-1-.2-2 .1-2.9.6-.6.3-1.2.8-1.6 1.4L69 58.5c-1.7 1.6-1.8 4.2-.2 5.9 1.6 1.7 4.2 1.8 5.9.2l2.7-2.6c-4.8 11-15.9 18.7-28.8 18.7-12.5 0-23.7-7.4-28.7-18.8-.9-2.1-3.4-3.1-5.5-2.2-2.1.9-3.1 3.4-2.2 5.5C18.5 79.7 32.8 89 48.6 89c17.7 0 32.7-11.5 37.8-27.3l1.9 3.6c.8 1.4 2.2 2.2 3.7 2.2.7 0 1.4-.2 2-.5 2.2-1 3-3.6 1.9-5.6z"/>
</svg>
