<svg xmlns="http://www.w3.org/2000/svg" viewBox="0 0 1900 600" width="100%" height="100%">
  <g id="icons" fill="currentColor">
    <!-- Plus -->
    <g>
      <rect x="40" y="10" width="20" height="80" rx="3" ry="3"/>
      <rect x="10" y="40" width="80" height="20" rx="3" ry="3"/>
    </g>
    <!-- Search -->
    <g transform="translate(100 -100)">
      <path d="M87.37,199.62l-23.49-23.49c-6.44,4.21-14.13,6.68-22.43,6.68
        c-22.64,0-40.95-18.35-40.95-40.99c0-22.6,18.31-40.94,40.95-40.94
        c22.6,0,40.94,18.35,40.94,40.94c0,7.9-2.22,15.27-6.07,21.5l23.66,23.65
        c1.25,1.22,0.2,4.25-2.31,6.76l-3.52,3.53
        C91.62,199.78,88.59,200.83,87.37,199.62L87.37,199.62z M68.78,141.82
        c0-15.11-12.23-27.34-27.34-27.34c-15.11,0-27.38,12.23-27.38,27.34
        s12.27,27.38,27.38,27.38C56.55,169.2,68.78,156.93,68.78,141.82z"/>
    </g>
    <!-- Sync -->
    <g transform="translate(200 0)">
      <path d="M87.6 34.7C81.3 20.2 67 10.9 51.2 10.9c-17.7 0-32.7 11.5-37.8 27.3l-1.9-3.6c-1.1-2-3.7-2.8-5.7-1.7S3 36.6 4.1 38.6l7.5 13.8c.6 1.1 1.7 1.9 3 2.1h.7c.8 0 1.6-.3 2.3-.7.6-.3 1.1-.8 1.5-1.3l11.9-11c1.7-1.6 1.8-4.2.2-5.9-1.6-1.7-4.2-1.8-5.9-.2L22.6 38c4.8-11 15.9-18.7 28.8-18.7 12.5 0 23.7 7.4 28.7 18.8.9 2.1 3.4 3.1 5.5 2.2 2-1 3-3.4 2-5.6zm8.3 26.7l-7.5-13.8c-.6-1.1-1.7-1.9-3-2.1-1-.2-2 .1-2.9.6-.6.3-1.2.8-1.6 1.4L69 58.5c-1.7 1.6-1.8 4.2-.2 5.9 1.6 1.7 4.2 1.8 5.9.2l2.7-2.6c-4.8 11-15.9 18.7-28.8 18.7-12.5 0-23.7-7.4-28.7-18.8-.9-2.1-3.4-3.1-5.5-2.2-2.1.9-3.1 3.4-2.2 5.5C18.5 79.7 32.8 89 48.6 89c17.7 0 32.7-11.5 37.8-27.3l1.9 3.6c.8 1.4 2.2 2.2 3.7 2.2.7 0 1.4-.2 2-.5 2.2-1 3-3.6 1.9-5.6z"/>
    </g>
    <!-- Bin -->
    <g transform="translate(300 0)" fill="none" stroke="currentColor"
      stroke-width="5" stroke-linecap="round">
      <line x1="2.601" y1="20.206" x2="97.398" y2="20.206"/>
      <path d="M8.421,13.864c0-4.676,1.465-10.873,10.226-10.844
              c6.818,0.022,56.71-0.029,61.664-0.029c8.301,0,11.268,
              3.684,11.268,10.873"/>
      <path d="M15.299,26.281c0,0,5.161,59.847,5.761,63.939S25.486,97,29.008,97
              s39.546,0,43.068,0s7.064-2.926,7.494-6.78s4.129-63.939,
              4.129-63.939"/>
      <line x1="40.75" y1="28.5" x2="40.75" y2="83"/>
      <line x1="59.45" y1="28.5" x2="59.45" y2="83"/>
    </g>
    <!-- Add card -->
    <g transform="translate(400 0)">
      <path d="M67.06,56.46H43.54V32.94c0-1.44-1.17-2.61-2.61-2.61
        H28.74c-1.44,0-2.61,1.17-2.61,2.61v23.52H2.61
        C1.17,56.46,0,57.63,0,59.07v12.19c0,1.45,1.17,2.61,2.61,2.61
        h23.52v23.52c0,1.45,1.17,2.61,2.61,2.61h12.19
        c1.44,0,2.61-1.16,2.61-2.61V73.87h23.52c1.45,0,2.61-1.16,2.61-2.61
        V59.07C69.67,57.63,68.51,56.46,67.06,56.46z"/>
      <path d="M23.128,85h-0.121c-4.321,0-7.845-3.622-7.992-8.13h-6
        C9.167,84.687,15.379,91,23.007,91h0.121V85z"/>
      <path d="M85.992,0H23.007C15.284,0,9,6.469,9,14.42v39.041h6V14.42
        C15,9.777,18.592,6,23.007,6h62.985C90.407,6,94,9.777,94,14.42
        v62.16c0,4.643-3.593,8.42-8.008,8.42H46.544v6h39.448
        C93.716,91,100,84.531,100,76.58V14.42C100,6.469,93.716,0,85.992,0z"/>
    </g>
    <!-- Edit -->
    <g transform="translate(550 50) scale(1.7) translate(-50 -50)">
      <path d="M77.18,30.44l-7.62-7.62a5,5,0,0,0-7.07,0L29,56.28
               a2,2,0,0,0-.51.86L23.68,73.84A2,2,0,0,0,25.6,76.4
               a2,2,0,0,0,.56-.08l16.71-4.85a2,2,0,0,0,.86-.51L77.18,37.51
               a5,5,0,0,0,0-7.07Zm-48.64,41,3.09-10.66,7.56,7.56Z"/>
    </g>
    <!-- Edit card -->
    <g transform="translate(600 0)">
      <path d="M85.99,0H23.01C15.28,0,9,6.47,9,14.42v53.81l6-5.99
        V14.42C15,9.78,18.59,6,23.01,6h62.99C90.41,6,94,9.78,94,14.42v62.16
        c0,4.64-3.59,8.42-8.01,8.42H37.73l-6,6h54.26
        C93.72,91,100,84.53,100,76.58V14.42C100,6.47,93.72,0,85.99,0z"/>
      <path d="M67.9,41.69l-9.59-9.59c-2.46-2.46-6.44-2.46-8.9,0L7.25,74.21
        c-0.3,0.3-0.52,0.67-0.64,1.08L0.56,96.32
        c-0.39,1.33,0.38,2.73,1.71,3.12c0.23,0.07,0.47,0.1,0.7,0.1
        c0.24,0,0.48-0.03,0.71-0.1l21.03-6.1c0.41-0.12,0.78-0.34,1.08-0.64
        L67.9,50.59C70.36,48.13,70.36,44.15,67.9,41.69z
        M6.68,93.3l3.89-13.42l9.52,9.52L6.68,93.3z"/>
    </g>
    <!-- Lookup -->
    <g transform="translate(700 0)">
      <path d="M96.75,92.12c-0.52,0-1.01-0.12-1.47-0.36l-6.96-3.58
        c-4.61-2.35-9.77-3.59-14.93-3.59s-10.33,1.24-14.93,3.58l-6.97,3.59
        l-0.1,0.05l-0.2,0.08l-0.21,0.07l-0.16,0.04l-0.16,0.03h-0.71
        c-0.19,0-0.42-0.03-0.64-0.08l-0.17-0.04h-0.11
        c-0.16-0.05-0.31-0.11-0.45-0.18l-0.33-0.17h-0.06l-6.63-3.41
        c-4.61-2.35-9.77-3.59-14.93-3.59c-5.17,0-10.33,1.24-14.93,3.58
        l-6.97,3.59c-0.46,0.23-0.97,0.36-1.49,0.36C1.45,92.1,0,90.65,0,88.86
        v-70.2c0-1.22,0.69-2.33,1.8-2.88l6.98-3.59
        c5.5-2.8,11.69-4.29,17.87-4.29c6.19,0,12.37,1.48,17.88,4.29l5.5,2.74
        l5.49-2.73C61.03,9.38,67.21,7.9,73.4,7.9
        c6.19,0,12.37,1.48,17.88,4.29l6.96,3.58c1.09,0.56,1.77,1.66,1.76,2.89
        v70.2c0,0.52-0.12,1.04-0.36,1.5
        C99.09,91.44,97.98,92.12,96.75,92.12L96.75,92.12z M73.38,78.15
        c6.19,0,12.37,1.48,17.88,4.29l2.25,1.15V20.63l-5.19-2.65
        c-4.6-2.35-9.76-3.58-14.93-3.58s-10.33,1.24-14.93,3.58l-5.21,2.65
        v62.96l2.25-1.15C61.01,79.63,67.19,78.15,73.38,78.15z
        M26.62,78.15c6.19,0,12.37,1.48,17.88,4.29l2.25,1.15V20.63l-5.19-2.65
        c-4.6-2.35-9.76-3.58-14.93-3.58
        c-5.17,0-10.33,1.24-14.93,3.58L6.5,20.63v62.96l2.25-1.15
        C14.26,79.63,20.44,78.15,26.62,78.15z"/>
    </g>
    <!-- Review -->
    <!-- The tiny scale component is because occasionally this icon was bleeding
         into the next one. -->
    <g transform="translate(800 0) scale(0.95)">
      <path fill="none" stroke="currentColor" stroke-width="6"
        d="M88,85.58C88,91.89,83.07,97,76.99,97H14.01
        C7.93,97,3,91.89,3,85.58V23.42C3,17.11,7.93,12,14.01,12
        h62.99C83.07,12,88,17.11,88,23.42V85.58z"/>
      <path d="M85.99,0H23.01c-4.76,0-8.97,2.46-11.5,6.21
        C12.33,6.09,13.16,6,14.01,6h9h53.99h9C90.41,6,94,9.78,94,14.42v9
        v53.16v9c0,1.03-0.1,2.03-0.27,3.01c3.78-2.59,6.27-7,6.27-12.01
        V14.42C100,6.47,93.72,0,85.99,0z"/>
    </g>
    <!-- Cross -->
    <g transform="translate(900 0)">
      <path fill="none" stroke="currentColor" stroke-width="20"
        stroke-linecap="round" d="M85 15L15 85M15 15l70 70"/>
    </g>
    <!-- User -->
    <g transform="translate(1000 0)">
      <path d="M64.992 45.781c3.831-3.834 6.2-9.064 6.2-14.912
        0-11.704-9.487-21.16-21.192-21.16-11.704 0-21.192 9.504-21.192 21.208
        0 5.848 2.369 11.021 6.2 14.855C16.515 51.99 3.198 70 3.198
        90h93.605c0-20-13.32-38.002-31.811-44.219z"/>
    </g>
    <!-- Lock -->
    <g transform="translate(1100 0)">
      <path d="M82.81 43H81V32.256C81 15.237 67.02 1.264 50
        1.264c-17.019 0-31 14.063-31 31.08V43h-1.809C11.469 43 7 46.704
        7 52.493v35.814C7 94.096 11.469 99 17.191 99H82.81C88.531 99 93 94.096 93
        88.308V52.493C93 46.704 88.531 43 82.81 43zM32 33v-.976c0-9.958
        8.273-18.094 18.232-18.094C60.19 13.931 68 22.097 68
        32.056V43H32V33z"/>
    </g>
    <!-- Play -->
    <g transform="translate(1200 0)">
      <path d="M0 10l80 40l-80 40v-60" />
    </g>
    <!-- Pause -->
    <g transform="translate(1300 0)">
      <path d="M20 0h20v100h-20v-100M60 0h20v100h-20v-100"/>
    </g>
    <!-- Cog -->
    <g transform="translate(1400 0)">
      <path d="M25.14,87.37c-2.23,2.14-5.81,2.11-8-0.08l-4.43-4.43
        c-2.19-2.19-2.23-5.75-0.08-8l0.19-0.19c2.14-2.23,2.93-6.34,1.73-9.22
        l-0.54-1.3c-1.19-2.86-4.63-5.23-7.75-5.29l-0.27-0.01
        c-3.09-0.06-5.6-2.61-5.6-5.71l0-6.27c0-3.09,2.49-5.65,5.6-5.71
        l0.27-0.01c3.09-0.06,6.55-2.42,7.75-5.29l0.54-1.3
        c1.19-2.86,0.42-6.98-1.73-9.22l-0.19-0.19
        c-2.14-2.23-2.11-5.81,0.08-8l4.43-4.43c2.19-2.19,5.75-2.23,8-0.08
        l0.19,0.19c2.23,2.14,6.34,2.93,9.22,1.73l1.3-0.54
        c2.86-1.19,5.23-4.63,5.29-7.75l0.01-0.27c0.06-3.09,2.61-5.6,5.71-5.6
        l6.27,0c3.09,0,5.65,2.49,5.71,5.6l0.01,0.27
        c0.06,3.09,2.42,6.55,5.29,7.75l1.29,0.54c2.86,1.19,6.98,0.42,9.22-1.73
        l0.2-0.19c2.23-2.14,5.81-2.11,7.99,0.08l4.43,4.43
        c2.19,2.19,2.23,5.75,0.08,8l-0.19,0.19c-2.14,2.23-2.93,6.34-1.73,9.22
        l0.54,1.3c1.19,2.86,4.64,5.23,7.75,5.29l0.27,0.01
        c3.09,0.06,5.6,2.61,5.6,5.71v6.27c0,3.09-2.49,5.65-5.6,5.71l-0.27,0.01
        c-3.09,0.06-6.56,2.42-7.75,5.29l-0.54,1.29
        c-1.19,2.86-0.42,6.98,1.73,9.22l0.19,0.2c2.14,2.23,2.11,5.81-0.08,7.99
        l-4.43,4.43c-2.19,2.19-5.75,2.23-8,0.08l-0.19-0.19
        c-2.23-2.14-6.34-2.93-9.22-1.73l-1.3,0.54
        c-2.86,1.19-5.23,4.64-5.29,7.75l-0.01,0.27c-0.06,3.09-2.61,5.6-5.71,5.6
        h-6.27
        c-3.09,0-5.65-2.49-5.71-5.6l-0.01-0.27c-0.06-3.09-2.42-6.56-5.29-7.75
        l-1.3-0.54c-2.86-1.19-6.98-0.42-9.22,1.73L25.14,87.37z
        M40.72,72.4c12.37,5.13,26.55-0.75,31.67-13.12
        c5.13-12.37-0.75-26.55-13.12-31.67c-12.37-5.12-26.55,0.75-31.67,13.12
        C22.48,53.09,28.35,67.27,40.72,72.4z"/>
    </g>
    <!-- Dot dot dot -->
    <g transform="translate(1500 0)">
      <circle cx="50.1" cy="50.4" r="8.1"/>
      <circle cx="50.1" cy="25.4" r="8.1"/>
      <circle cx="50.1" cy="75.4" r="8.1"/>
    </g>
    <!-- Review: finished -->
    <g transform="translate(1600 0) scale(0.95)">
      <path fill="none" stroke="currentColor" stroke-width="6"
        d="M88,85.58C88,91.89,83.07,97,76.99,97H14.01
        C7.93,97,3,91.89,3,85.58V23.42C3,17.11,7.93,12,14.01,12
        h62.99C83.07,12,88,17.11,88,23.42V85.58z"/>
      <path d="M85.99,0H23.01c-4.76,0-8.97,2.46-11.5,6.21
        C12.33,6.09,13.16,6,14.01,6h9h53.99h9C90.41,6,94,9.78,94,14.42v9
        v53.16v9c0,1.03-0.1,2.03-0.27,3.01c3.78-2.59,6.27-7,6.27-12.01
        V14.42C100,6.47,93.72,0,85.99,0z"/>
      <path fill="#EE3624"
        transform="scale(1.1) translate(0 -10)"
        d="M39.27,40.21c-1.6,8.2-10.46-1.98-11.37-5.31
        c-0.89-3.27,2.83-3.5,4.76-2.42
        C35.12,33.87,39.92,36.85,39.27,40.21
        C39.11,41,39.53,38.87,39.27,40.21z
        M81.94,30.16c4.2,0.82,2.01,6.22-1.8,5.72
        c-0.94-0.12-2.65-0.72-3.57-0.47c-2.59,2.51-5.6,4.57-8.73,6.34
        c4.44,3.31,9.33,6.37,14.38,8.67c5.61,2.58-5.83,4.03-8.4,2.9
        c-0.38,6.83-2.7,13.99-4.01,20.7c-0.62,3.18-3.29,8.31-7.07,4.02
        c-2.02-2.3,0.37-8.22,0.87-10.83c-3.26-0.51-6.52-1.01-9.78-1.52
        c-0.65-0.1-2.8-0.83-3.42-0.53c-1.45,2.86-3.36,5.58-5.99,7.47
        c-1.8,1.31-4.66,1.81-5.51-0.94c-0.74-2.4,2.76-5.33,3.82-7.27
        c1.62-2.95,2.65-6.19,3.29-9.49c0.43-2.2,0.27-5.38,1.52-7.29
        c-1.74,0.15-3.7,0.42-5.44,0.08c-2.26-0.44-2.88-3.81-0.52-4.6
        c5.25-1.6,10.81-1.34,16.11-3.36c-1.16-1.28-4.94-7.42-6.53-7.64
        c-1.43-0.19-4.1-0.06-5.05-1.42c-4.21-6.05,6.37-4.29,8.5-4.02
        c1.89,0.24,3.77,0.49,5.66,0.73c0.42,0.05,0.72-3.82,0.98-4.35
        c0.61-3.13,5.17-3.13,6.72-0.75c1.04,1.61-0.04,4.33-0.38,6.03
        C72.34,28.92,77.23,29.24,81.94,30.16
        C83.74,30.51,81.88,30.15,81.94,30.16z
        M58.46,33.04c1.34,1.49,2.74,2.92,4.19,4.3
        c1.62-0.95,3.19-1.98,4.68-3.13C64.37,33.83,61.42,33.43,58.46,33.04z
        M65.38,58.08c-2.56-0.36-5.13-0.73-7.69-1.09
        c-4.48-0.64-4.12-1.24-5.4,3.19c2.93,0.45,5.86,0.89,8.79,1.34
        C65.11,62.14,64.59,62.13,65.38,58.08z
        M62.18,44.31
        c-3.16,1.22-6.47,2.02-9.79,2.62c2.03,0.81,2.11,2.37,1.74,4.22
        c2.92,0.4,5.85,0.8,8.77,1.21c1.13,0.16,2.26,0.31,3.39,0.47
        c-0.1-0.01,1.51-2.63,2.5-2.85C66.5,48.2,64.26,46.34,62.18,44.31
        C59.38,45.39,63.02,41.05,62.18,44.31z
        M37.02,28.33
        c1.35,2,3.97,3.03,5.92,1.12c3.16-3.07-0.33-6.21-2.77-8.13
        c-1.49-1.18-4.56-3.68-6.52-1.95C30.84,21.99,35.57,26.17,37.02,28.33
        C37.82,29.52,36.32,27.29,37.02,28.33z
        M90.6,54.78C86.93,73.54,69.07,86.9,50.04,85.05
        C30.05,83.12,14.7,65.09,16.06,45.04
        C17.39,25.57,34.06,9.9,53.6,9.9C76.95,9.9,95.08,31.82,90.6,54.78
        C87.15,72.43,92.52,44.91,90.6,54.78z
        M82.38,28.21
        C72.37,13.35,51.97,8.56,36.42,17.49c-15.99,9.18-22.08,29.96-13.39,46.3
        c1.15-3.85,5.83-7.61,8.22-10.84
        c1.26-1.71,7.01-8.07,7.88-2.13c0.56,3.82-8.59,18.75-13.23,17.51
        c11.01,14.71,32.31,18.2,47.41,7.74
        C88.71,65.43,92.86,43.78,82.38,28.21
        C77.21,20.53,87.55,35.89,82.38,28.21z"/>
    </g>
    <!-- Tag -->
    <g transform="translate(1700 0)">
      <path fill="none" stroke="currentColor" stroke-width="5"
        d="M60.6,97.1c-2.2,0-4.2-0.8-5.5-2.3L6.9,46.6c-1.6-1.6-2.4-3.8-2.3-6.2
        l0-0.1L3.1,10.5c0.3-4.1,3.4-7.3,7.4-7.5l30.3,1.5c0,0,0.3,0,0.4,0
        c2,0,4.1,0.9,5.7,2.4l48.1,48.1c3.1,3.1,3.1,8.2,0,11.3L66.4,94.7
        C64.8,96.3,62.9,97.1,60.6,97.1z"/>
      <circle fill="none" stroke="currentColor" stroke-width="5"
        cx="28.1" cy="27.9" r="9.4"/>
    </g>
    <!-- Key -->
    <g transform="translate(1800 0)" id="key">
      <path fill="none" stroke="currentColor" stroke-width="5"
        d="M86.7,96.8c-3.1-0.3-6.2-0.7-9.4-0.8c-1.2-0.1-2.9-0.3-3.9-1.3
        c-0.7-0.8-0.9-2-0.6-3.6c0.4-2.2,0.3-3.8-0.5-4.7
        c-0.6-0.7-1.7-1.1-3.2-1.1c-0.3,0-0.7,0-1.1,0.1c-0.2,0-0.5,0-0.7,0
        c-1.2,0-2.1-0.3-2.7-1c-1-1.2-0.7-3.1-0.5-3.8l0-0.2
        c0.1-0.7,0.3-1.6,0.4-2.3l0.3-2.3l-2.3,0c-0.8,0-1.9,0.1-2.9,0.2
        c-0.7,0-1.3,0.2-2.1,0.3l-2.6,0.5c0,0,0,0-0.1,0c-0.2,0-0.3-0.1-0.4-0.2
        c-0.1-0.1-0.2-0.3-0.1-0.5l0.8-2.5c0.3-0.8,0.5-1.3,0.6-2
        c0.3-1.4,0.6-2.9,0.6-3.8l0-1.7l-1.6-0.4c-0.5-0.1-1.4-0.2-4-0.3
        c-5.3,0-8.8-1.8-11-5.4c-0.9-1.4-2-2.3-4.7-2.3c-0.3,0-0.6,0-1,0
        c-0.6,0-1.1,0-1.7,0c-8.2,0-15.9-3.4-21.2-9.3c-4.5-5-6.9-11.6-6.8-18.4
        c0.1-7.7,3.2-14.9,8.9-20.2C18.4,5.3,25.1,2.6,32,2.6c0.7,0,1.3,0,2,0.1
        c7.3,0.5,13.9,3.7,18.7,9c5.4,6.1,7.9,14.6,6.8,23.2
        c-0.2,1.9,0.5,4.5,1.8,5.9C71.9,53.2,81.4,64,90.3,73.6l0,0
        c3.3,3.7,4.4,7,3.8,11.2c-0.3,2.3-0.3,4.6-0.3,6.9c0,1.1,0,2.1,0,3.1
        c0,0.1-0.1,0.3-0.2,0.4l-2.2,1.9c-0.1,0.1-0.2,0.1-0.3,0.1L86.7,96.8z"/>
      <path fill="none" stroke="currentColor" stroke-width="5"
        d="M26.5,33.7c-2.8,0-5.5-1.2-7.3-3.2c-3.4-3.9-3.1-10,0.7-13.5
        c1.8-1.7,4.1-2.6,6.5-2.6c0.2,0,0.3,0,0.5,0c2.6,0.1,5,1.3,6.7,3.2
        l0.1,0.1l-0.1-0.1c1.7,1.9,2.6,4.5,2.4,7.1c-0.2,2.6-1.3,4.9-3.2,6.6
        C31.2,32.9,28.9,33.7,26.5,33.7z"/>
    </g>
    <!-- Future: Back arrow -->
    <!-- Future: Pause -->
    <!-- Future: Play -->
    <!-- Future: Horizontal ... -->
    <!-- Future: Vertical ... -->
  </g>
  <use y="100" href="#icons" color="#333"/>
  <use y="200" href="#icons" color="#AAA"/>
  <use y="300" href="#icons" color="#2690BA"/>
  <!-- Remove this comment to see the white icon row
  <rect y="400" width="100%" height="100" fill="#2690BA"/>
  -->
  <use y="400" href="#icons" color="white"/>

  <!-- Outlined versions (only select icons since these often require separate
       paths -->
  <!-- Sync -->
  <g transform="translate(200 500)">
    <path fill="white" stroke="#AAA" stroke-width="4"
      d="M87.6 34.7C81.3 20.2 67 10.9 51.2 10.9c-17.7 0-32.7 11.5-37.8
      27.3l-1.9-3.6c-1.1-2-3.7-2.8-5.7-1.7S3 36.6 4.1 38.6l7.5 13.8c.6 1.1 1.7
      1.9 3 2.1h.7c.8 0 1.6-.3 2.3-.7.6-.3 1.1-.8 1.5-1.3l11.9-11c1.7-1.6
      1.8-4.2.2-5.9-1.6-1.7-4.2-1.8-5.9-.2L22.6 38c4.8-11 15.9-18.7 28.8-18.7
      12.5 0 23.7 7.4 28.7 18.8.9 2.1 3.4 3.1 5.5 2.2 2-1 3-3.4 2-5.6zm8.3
      26.7l-7.5-13.8c-.6-1.1-1.7-1.9-3-2.1-1-.2-2 .1-2.9.6-.6.3-1.2.8-1.6 1.4L69
      58.5c-1.7 1.6-1.8 4.2-.2 5.9 1.6 1.7 4.2 1.8 5.9.2l2.7-2.6c-4.8 11-15.9
      18.7-28.8 18.7-12.5 0-23.7-7.4-28.7-18.8-.9-2.1-3.4-3.1-5.5-2.2-2.1.9-3.1
      3.4-2.2 5.5C18.5 79.7 32.8 89 48.6 89c17.7 0 32.7-11.5 37.8-27.3l1.9
      3.6c.8 1.4 2.2 2.2 3.7 2.2.7 0 1.4-.2 2-.5 2.2-1 3-3.6 1.9-5.6z"/>
  </g>
  <!-- Cog -->
  <g transform="translate(1400 500)">
    <path fill="white" stroke="#AAA" stroke-width="4"
      d="M25.94,85.93c-2.81,2.72-7.31,2.69-10.08-0.08l-1.71-1.71
         c-2.76-2.76-2.79-7.27-0.07-10.08l0.69-0.71
         c2.04-2.1,2.78-5.99,1.65-8.72l-0.51-1.23c-1.12-2.71-4.41-4.95-7.32-5
         l-0.29,0c-3.9-0.07-7.06-3.27-7.06-7.19l0-2.42
         c0-3.9,3.15-7.12,7.06-7.19l0.29-0.01c2.92-0.05,6.19-2.27,7.32-5
         l0.51-1.23c1.12-2.71,0.37-6.63-1.64-8.71l-0.7-0.73
         c-2.72-2.81-2.69-7.31,0.08-10.08l1.71-1.71
         c2.76-2.76,7.27-2.79,10.08-0.07l0.71,0.69
         c2.1,2.04,5.99,2.78,8.72,1.65l1.23-0.51c2.71-1.12,4.95-4.41,5-7.32
         l0-0.29c0.07-3.9,3.27-7.06,7.19-7.06l2.42,0
         c3.9,0,7.12,3.15,7.19,7.06l0,0.29c0.05,2.92,2.27,6.19,5,7.32
         l1.23,0.51c2.71,1.12,6.63,0.37,8.71-1.64l0.73-0.7
         c2.81-2.72,7.31-2.69,10.08,0.08l1.71,1.71
         c2.76,2.76,2.79,7.27,0.07,10.08l-0.69,0.71
         c-2.04,2.1-2.78,5.99-1.65,8.72l0.51,1.23
         c1.13,2.71,4.41,4.95,7.32,5l0.29,0.01c3.9,0.07,7.06,3.27,7.06,7.19
         v2.42c0,3.9-3.15,7.12-7.05,7.19l-0.29,0
         c-2.92,0.05-6.19,2.27-7.32,5l-0.51,1.23c-1.12,2.71-0.37,6.63,1.64,8.71
         l0.7,0.73c2.72,2.81,2.69,7.31-0.08,10.08l-1.71,1.71
         c-2.76,2.76-7.27,2.79-10.08,0.07l-0.71-0.69
         c-2.1-2.04-5.99-2.78-8.72-1.65l-1.23,0.51c-2.71,1.13-4.95,4.41-5,7.32
         l0,0.29c-0.07,3.9-3.27,7.06-7.19,7.06h-2.42c-3.9,0-7.12-3.15-7.19-7.05
         l-0.01-0.29c-0.05-2.92-2.27-6.19-5-7.32l-1.23-0.51
         c-2.71-1.12-6.63-0.37-8.71,1.64L25.94,85.93z M41.21,71.22
         c11.72,4.86,25.16-0.71,30.01-12.43c4.86-11.72-0.71-25.16-12.43-30.01
         c-11.72-4.85-25.16,0.71-30.01,12.43
         C23.92,52.93,29.49,66.37,41.21,71.22z"/>
  </g>
  <!-- Dot dot dot -->
  <g transform="translate(1500 500)"
    fill="white" stroke="#AAA" stroke-width="4">
    <circle cx="50.1" cy="50.4" r="8.1"/>
    <circle cx="50.1" cy="25.4" r="8.1"/>
    <circle cx="50.1" cy="75.4" r="8.1"/>
  </g>
  <!-- Yellow key -->
  <use x="0" y="500" href="#key" color="#cdb900"/>

  <!-- Viewboxes used for textboxes (which can't use pseudo elements for the
       background -->
  <view id="search-grey" viewBox="100 200 100 100"/>
  <view id="user-grey" viewBox="1000 200 100 100"/>
  <view id="lock-grey" viewBox="1100 200 100 100"/>
  <view id="tag-grey" viewBox="1700 200 100 100"/>
  <view id="key-yellow" viewBox="1800 500 100 100"/>
</svg>
