<svg xmlns="http://www.w3.org/2000/svg" width="300" height="100" viewBox="0 0 300 100">
  <path fill="#FFF" stroke="#AAA" stroke-width="4" stroke-miterlimit="10" d="M86.28 35.15c-6.3-14.484-20.58-23.843-36.373-23.843-17.67 0-32.68 11.465-37.838 27.267l-1.94-3.554c-1.11-2.034-3.658-2.784-5.692-1.674-2.034 1.11-2.784 3.657-1.674 5.69l7.528 13.81c.622 1.14 1.738 1.928 3.022 2.133.22.032.44.05.66.05.83 0 1.632-.252 2.32-.71.608-.32 1.137-.77 1.522-1.34l11.78-11.084c1.688-1.587 1.77-4.242.182-5.93-1.588-1.688-4.244-1.768-5.93-.18l-2.725 2.564c4.83-10.963 15.91-18.652 28.783-18.652 12.453 0 23.71 7.38 28.68 18.8.926 2.125 3.396 3.1 5.522 2.173 2.123-.923 3.096-3.394 2.17-5.52h.002zm8.23 26.645l-7.53-13.81c-.62-1.14-1.737-1.928-3.02-2.133-1.017-.164-2.04.07-2.897.61-.644.323-1.202.793-1.605 1.386l-11.78 11.085c-1.688 1.588-1.77 4.24-.182 5.93 1.588 1.687 4.242 1.768 5.93.18l2.726-2.562c-4.828 10.964-15.91 18.654-28.784 18.654-12.453 0-23.71-7.38-28.682-18.802-.925-2.123-3.397-3.094-5.52-2.17-2.124.924-3.096 3.395-2.172 5.52 6.303 14.483 20.582 23.84 36.374 23.84 17.67 0 32.68-11.463 37.838-27.265l1.937 3.554c.76 1.397 2.2 2.19 3.687 2.19.678 0 1.367-.166 2.005-.515 2.033-1.11 2.783-3.657 1.674-5.69z"/>
  <g fill="#FFF" stroke="#AAA" stroke-width="4" stroke-miterlimit="10">
    <circle cx="150.097" cy="50.406" r="8.102"/>
    <circle cx="150.097" cy="25.406" r="8.102"/>
    <circle cx="150.097" cy="75.406" r="8.102"/>
  </g>
  <path fill="#FFF" stroke="#AAA" stroke-width="5" stroke-miterlimit="10" d="M295.875 41.5c-2.094-2.098-5.988-.946-8.625-1.5-3.64-.764-4.612-3.996-5.973-7.146-1.45-3.358 1.015-5.127 2.1-8.13.92-2.552 2.638-3.688 1.218-6.667-.924-1.938-3.357-4.642-5.72-4.556-2.322-.07-5.516 4.98-7.86 5.587-3.765.976-9.202-1.336-10.702-4.4-2.037-4.16.55-10.286-5.694-10.708-2.466-.168-4.493-.52-5.494.333-1.487 1.27-1.384 4.278-2.555 7.028-1.003 2.36-3.22 4.138-5.444 5.223-2.073 1.01-4.105 1.472-6.492-.085-3.655-2.384-5.392-8.026-10.797-4.44-1.904 1.264-4.285 2.122-4.273 4.525.012 2.374 3.236 5.97 3.188 8.313-.084 4.045-1.253 6.71-5.092 8.916-2.388 1.372-6.925.528-9.596.46-2.438-.064-3.688 1.25-3.87 6.893-.218 6.675 10.61 3.497 10.175 11.385-.2 3.634 1.392 6.045-1.43 8.596-2.122 1.918-6.81 2.77-6.44 6 .42 3.652 2.318 7.02 4.376 7.375 2.458.427 5.684-1.74 8.384-1.237 2.82.524 8.393 2.854 8.804 6.55.37 3.323-1.492 7.146-.74 10.27.93 3.858 4.745 5.237 8.178 4.17 1.48-.46 2.797-2.415 3.507-4.21.63-1.602 1.887-3.438 3.367-4.166 3.858-1.896 9.477-.128 11.298 4.088.725 1.678 2.43 5.28 4.452 5.824.92.247 5.25.65 8.125-1.35s-1.198-7.88 1.313-12.69c1.402-2.69 5.002-5.056 7.938-5.187s4.995 2.5 6.756 3.034c6.053 1.84 9.428-6.847 6.74-10.597-1.208-1.686-4.66-2.946-5.378-4.737-.464-1.16.736-3.792.984-5.53.92-6.46 9.046-5.74 11.65-8.916 1.113-1.36.88-7.053-.38-8.317zm-45.577 25.305c-8.573 0-15.522-6.95-15.522-15.522s6.95-15.523 15.522-15.523 15.522 6.95 15.522 15.523-6.95 15.522-15.522 15.522z"/>
</svg>
