<svg xmlns="http://www.w3.org/2000/svg" width="600" height="100" viewBox="0 0 600 100">
  <path fill="#FFF" stroke="#AAA" stroke-width="4" stroke-miterlimit="10" d="M87.2 34.8C80.9 20.3 66.6 11 50.8 11 33.2 11 18.2 22.4 13 38.2l-1.9-3.6c-1.1-2-3.7-2.8-5.7-1.7s-2.8 3.7-1.7 5.7l7.5 13.8c.6 1.1 1.7 1.9 3 2.1h.7c.8 0 1.6-.3 2.3-.7.6-.3 1.1-.8 1.5-1.3l11.8-11.1c1.7-1.6 1.8-4.2.2-5.9-1.6-1.7-4.2-1.8-5.9-.2L22.1 38C26.9 27 38 19.4 50.8 19.4c12.5 0 23.7 7.4 28.7 18.8.9 2.1 3.4 3.1 5.5 2.2 2.2-1 3.1-3.5 2.2-5.6zm8.2 26.6l-7.5-13.8c-.6-1.1-1.7-1.9-3-2.1-1-.2-2 .1-2.9.6-.6.3-1.2.8-1.6 1.4L68.6 58.6c-1.7 1.6-1.8 4.2-.2 5.9 1.6 1.7 4.2 1.8 5.9.2l2.7-2.6c-4.8 11-15.9 18.7-28.8 18.7-12.5 0-23.7-7.4-28.7-18.8-.9-2.1-3.4-3.1-5.5-2.2-2.1.9-3.1 3.4-2.2 5.5 6.3 14.5 20.6 23.8 36.4 23.8C66 89.2 81 77.7 86.1 61.9l1.9 3.6c.8 1.4 2.2 2.2 3.7 2.2.7 0 1.4-.2 2-.5 2.1-1.2 2.9-3.7 1.7-5.8zm91-26.6C180.1 20.3 165.8 11 150 11c-17.7 0-32.7 11.5-37.8 27.3l-1.9-3.6c-1.1-2-3.7-2.8-5.7-1.7-2 1.1-2.8 3.7-1.7 5.7l7.5 13.8c.6 1.1 1.7 1.9 3 2.1h.7c.8 0 1.6-.3 2.3-.7.6-.3 1.1-.8 1.5-1.3l11.8-11.1c1.7-1.6 1.8-4.2.2-5.9-1.6-1.7-4.2-1.8-5.9-.2l-2.7 2.6c4.8-11 15.9-18.7 28.8-18.7 12.5 0 23.7 7.4 28.7 18.8.9 2.1 3.4 3.1 5.5 2.2 2-.9 3-3.4 2.1-5.5zm8.2 26.6l-7.5-13.8c-.6-1.1-1.7-1.9-3-2.1-1-.2-2 .1-2.9.6-.6.3-1.2.8-1.6 1.4l-11.8 11.1c-1.7 1.6-1.8 4.2-.2 5.9 1.6 1.7 4.2 1.8 5.9.2l2.7-2.6c-4.8 11-15.9 18.7-28.8 18.7-12.5 0-23.7-7.4-28.7-18.8-.9-2.1-3.4-3.1-5.5-2.2-2.1.9-3.1 3.4-2.2 5.5 6.3 14.5 20.6 23.8 36.4 23.8 17.7 0 32.7-11.5 37.8-27.3l1.9 3.6c.8 1.4 2.2 2.2 3.7 2.2.7 0 1.4-.2 2-.5 2.2-1.1 2.9-3.6 1.8-5.7z"/>
  <circle fill="#D17171" cx="177.4" cy="77.3" r="17.6"/>
  <path fill="#FFF" d="M173.9 86.6c0-1.8 1.5-3 3.7-3s3.6 1.3 3.6 3-1.4 3-3.6 3-3.7-1.3-3.7-3zm1.3-5.7l-.9-15h6.5l-.9 15h-4.7z"/>
  <path fill="#FFF" stroke="#AAA" stroke-width="4" stroke-miterlimit="10" d="M286.5 34.8C280.2 20.3 265.9 11 250.2 11c-17.7 0-32.7 11.5-37.8 27.3l-1.9-3.6c-1.1-2-3.7-2.8-5.7-1.7s-2.8 3.7-1.7 5.7l7.5 13.8c.6 1.1 1.7 1.9 3 2.1h.7c.8 0 1.6-.3 2.3-.7.6-.3 1.1-.8 1.5-1.3l11.8-11.1c1.7-1.6 1.8-4.2.2-5.9s-4.2-1.8-5.9-.2l-2.7 2.6c4.8-11 15.9-18.7 28.8-18.7 12.5 0 23.7 7.4 28.7 18.8.9 2.1 3.4 3.1 5.5 2.2 2-.9 3-3.4 2-5.5zm8.3 26.6l-7.5-13.8c-.6-1.1-1.7-1.9-3-2.1-1-.2-2 .1-2.9.6-.6.3-1.2.8-1.6 1.4L268 58.6c-1.7 1.6-1.8 4.2-.2 5.9 1.6 1.7 4.2 1.8 5.9.2l2.7-2.6c-4.8 11-15.9 18.7-28.8 18.7-12.5 0-23.7-7.4-28.7-18.8-.9-2.1-3.4-3.1-5.5-2.2-2.1.9-3.1 3.4-2.2 5.5 6.3 14.5 20.6 23.8 36.4 23.8 17.7 0 32.7-11.5 37.8-27.3l1.9 3.6c.8 1.4 2.2 2.2 3.7 2.2.7 0 1.4-.2 2-.5 2.1-1.1 2.9-3.6 1.8-5.7z"/>
  <circle fill="#DDB926" cx="277.3" cy="77.3" r="17.6"/>
  <g fill="#FFF">
    <circle cx="277.3" cy="86.4" r="3.3"/>
    <path d="M263.8 76.2c-.3 0-.7-.1-.9-.3-.6-.5-.7-1.4-.2-2 3.5-4.1 8.7-6.5 14.1-6.5s10.5 2.3 14 6.4c.5.6.5 1.5-.1 2s-1.5.5-2-.1c-3-3.5-7.3-5.5-11.9-5.5-4.6 0-8.9 2-11.9 5.5-.3.3-.7.5-1.1.5z"/>
    <path d="M267.2 80.1c-.3 0-.7-.1-.9-.3-.6-.5-.7-1.4-.2-2 2.7-3.2 6.6-5 10.7-5s8 1.8 10.7 4.9c.5.6.4 1.5-.2 2-.6.5-1.5.4-2-.2-2.1-2.5-5.2-3.9-8.5-3.9s-6.4 1.4-8.6 4c-.2.3-.6.5-1 .5z"/>
    <path d="M270.9 83.3c-.3 0-.6-.1-.9-.3-.6-.5-.7-1.4-.2-2 1.7-2.1 4.3-3.3 7.1-3.3 2.7 0 5.3 1.2 7 3.3.5.6.4 1.5-.2 2-.6.5-1.5.4-2-.2-1.2-1.4-3-2.3-4.8-2.3-1.9 0-3.7.8-4.9 2.3-.3.4-.7.5-1.1.5z"/>
  </g>
  <path fill="none" stroke="#DDB926" stroke-width="6" stroke-linecap="round" stroke-miterlimit="10" d="M268.1 87.3l16.4-21.9"/>
  <path fill="none" stroke="#FFF" stroke-width="2" stroke-linecap="round" stroke-miterlimit="10" d="M268.1 87.3l16.4-21.9"/>
  <path fill="#FFF" stroke="#AAA" stroke-width="4" stroke-miterlimit="10" d="M388.2 34.8C381.9 20.3 367.6 11 351.8 11c-17.7 0-32.7 11.5-37.8 27.3l-1.9-3.6c-1.1-2-3.7-2.8-5.7-1.7s-2.8 3.7-1.7 5.7l7.5 13.8c.6 1.1 1.7 1.9 3 2.1h.7c.8 0 1.6-.3 2.3-.7.6-.3 1.1-.8 1.5-1.3l11.8-11.1c1.7-1.6 1.8-4.2.2-5.9s-4.2-1.8-5.9-.2L323 38c4.8-11 15.9-18.7 28.8-18.7 12.5 0 23.7 7.4 28.7 18.8.9 2.1 3.4 3.1 5.5 2.2 2.1-.9 3.1-3.4 2.2-5.5zm8.2 26.6l-7.5-13.8c-.6-1.1-1.7-1.9-3-2.1-1-.2-2 .1-2.9.6-.6.3-1.2.8-1.6 1.4l-11.8 11.1c-1.7 1.6-1.8 4.2-.2 5.9 1.6 1.7 4.2 1.8 5.9.2l2.7-2.6c-4.8 11-15.9 18.7-28.8 18.7-12.5 0-23.7-7.4-28.7-18.8-.9-2.1-3.4-3.1-5.5-2.2-2.1.9-3.1 3.4-2.2 5.5 6.3 14.5 20.6 23.8 36.4 23.8 17.7 0 32.7-11.5 37.8-27.3l1.9 3.6c.8 1.4 2.2 2.2 3.7 2.2.7 0 1.4-.2 2-.5 2.2-1.1 2.9-3.6 1.8-5.7z"/>
  <circle fill="#BF97C4" cx="379.2" cy="77.3" r="17.6"/>
  <path fill="none" stroke="#FFF" stroke-width="5" stroke-miterlimit="10" d="M374.5 67v21m9-21v21"/>
  <g fill="#FFF" stroke="#AAA" stroke-width="4" stroke-miterlimit="10">
    <circle cx="450.1" cy="50.4" r="8.1"/>
    <circle cx="450.1" cy="25.4" r="8.1"/>
    <circle cx="450.1" cy="75.4" r="8.1"/>
  </g>
  <path fill="#FFF" stroke="#AAA" stroke-width="5" stroke-miterlimit="10" d="M595.9 41.5c-2.1-2.1-6-.9-8.6-1.5-3.6-.8-4.6-4-6-7.1-1.4-3.4 1-5.1 2.1-8.1.9-2.6 2.6-3.7 1.2-6.7-.9-1.9-3.4-4.6-5.7-4.6-2.3-.1-5.5 5-7.9 5.6-3.8 1-9.2-1.3-10.7-4.4-2-4.2.6-10.3-5.7-10.7-2.5-.2-4.5-.5-5.5.3-1.5 1.3-1.4 4.3-2.6 7-1 2.4-3.2 4.1-5.4 5.2-2.1 1-4.1 1.5-6.5-.1-3.7-2.4-5.4-8-10.8-4.4-1.9 1.3-4.3 2.1-4.3 4.5s3.2 6 3.2 8.3c-.1 4-1.3 6.7-5.1 8.9-2.4 1.4-6.9.5-9.6.5-2.4-.1-3.7 1.3-3.9 6.9-.2 6.7 10.6 3.5 10.2 11.4-.2 3.6 1.4 6-1.4 8.6-2.1 1.9-6.8 2.8-6.4 6 .4 3.7 2.3 7 4.4 7.4 2.5.4 5.7-1.7 8.4-1.2 2.8.5 8.4 2.9 8.8 6.6.4 3.3-1.5 7.1-.7 10.3.9 3.9 4.7 5.2 8.2 4.2 1.5-.5 2.8-2.4 3.5-4.2.6-1.6 1.9-3.4 3.4-4.2 3.9-1.9 9.5-.1 11.3 4.1.7 1.7 2.4 5.3 4.5 5.8.9.2 5.3.7 8.1-1.3s-1.2-7.9 1.3-12.7c1.4-2.7 5-5.1 7.9-5.2s5 2.5 6.8 3c6.1 1.8 9.4-6.8 6.7-10.6-1.2-1.7-4.7-2.9-5.4-4.7-.5-1.2.7-3.8 1-5.5.9-6.5 9-5.7 11.7-8.9 1-1.5.7-7.2-.5-8.5zm-45.6 25.3c-8.6 0-15.5-7-15.5-15.5s7-15.5 15.5-15.5c8.6 0 15.5 7 15.5 15.5s-6.9 15.5-15.5 15.5z"/>
</svg>
