<svg xmlns="http://www.w3.org/2000/svg" viewBox="0 0 1200 100" width="1200" height="100">
  <path fill="#FFF" stroke="#AAA" stroke-width="4" stroke-miterlimit="10" d="M87.6 34.7C81.3 20.2 67 10.9 51.2 10.9c-17.7 0-32.7 11.5-37.8 27.3l-1.9-3.6c-1.1-2-3.7-2.8-5.7-1.7S3 36.6 4.1 38.6l7.5 13.8c.6 1.1 1.7 1.9 3 2.1h.7c.8 0 1.6-.3 2.3-.7.6-.3 1.1-.8 1.5-1.3l11.9-11c1.7-1.6 1.8-4.2.2-5.9-1.6-1.7-4.2-1.8-5.9-.2L22.6 38c4.8-11 15.9-18.7 28.8-18.7 12.5 0 23.7 7.4 28.7 18.8.9 2.1 3.4 3.1 5.5 2.2 2-1 3-3.4 2-5.6zm8.3 26.7l-7.5-13.8c-.6-1.1-1.7-1.9-3-2.1-1-.2-2 .1-2.9.6-.6.3-1.2.8-1.6 1.4L69 58.5c-1.7 1.6-1.8 4.2-.2 5.9 1.6 1.7 4.2 1.8 5.9.2l2.7-2.6c-4.8 11-15.9 18.7-28.8 18.7-12.5 0-23.7-7.4-28.7-18.8-.9-2.1-3.4-3.1-5.5-2.2-2.1.9-3.1 3.4-2.2 5.5C18.5 79.7 32.8 89 48.6 89c17.7 0 32.7-11.5 37.8-27.3l1.9 3.6c.8 1.4 2.2 2.2 3.7 2.2.7 0 1.4-.2 2-.5 2.2-1 3-3.6 1.9-5.6zm91.7-26.7c-6.3-14.5-20.6-23.8-36.4-23.8-17.7 0-32.7 11.5-37.8 27.3l-1.9-3.6c-1.1-2-3.7-2.8-5.7-1.7-2 1.1-2.8 3.7-1.7 5.7l7.5 13.8c.6 1.1 1.7 1.9 3 2.1h.7c.8 0 1.6-.3 2.3-.7.6-.3 1.1-.8 1.5-1.3l11.9-11c1.7-1.6 1.8-4.2.2-5.9s-4.2-1.8-5.9-.2l-2.7 2.6c4.8-11 15.9-18.7 28.8-18.7 12.5 0 23.7 7.4 28.7 18.8.9 2.1 3.4 3.1 5.5 2.2 2-1 3-3.4 2-5.6zm8.3 26.7l-7.5-13.8c-.6-1.1-1.7-1.9-3-2.1-1-.2-2 .1-2.9.6-.6.3-1.2.8-1.6 1.4l-11.9 11c-1.7 1.6-1.8 4.2-.2 5.9 1.6 1.7 4.2 1.8 5.9.2l2.7-2.6c-4.8 11-15.9 18.7-28.8 18.7-12.5 0-23.7-7.4-28.7-18.8-.9-2.1-3.4-3.1-5.5-2.2-2.1.9-3.1 3.4-2.2 5.5 6.3 14.5 20.6 23.8 36.4 23.8 17.7 0 32.7-11.5 37.8-27.3l1.9 3.6c.8 1.4 2.2 2.2 3.7 2.2.7 0 1.4-.2 2-.5 2.2-1 3-3.6 1.9-5.6z"/>
  <circle fill="#73B371" cx="175.1" cy="74.6" r="20"/>
  <path fill="none" stroke="#FFF" stroke-width="5.239" stroke-linecap="round" stroke-linejoin="round" stroke-miterlimit="10" d="M163.8 76.8l8.7 7.3L184.3 66"/>
  <path fill="#FFF" stroke="#AAA" stroke-width="4" stroke-miterlimit="10" d="M287.6 34.7c-6.3-14.5-20.6-23.8-36.4-23.8-17.7 0-32.7 11.5-37.8 27.3l-1.9-3.6c-1.1-2-3.7-2.8-5.7-1.7s-2.8 3.7-1.7 5.7l7.5 13.8c.6 1.1 1.7 1.9 3 2.1h.7c.8 0 1.6-.3 2.3-.7.6-.3 1.1-.8 1.5-1.3l11.9-11c1.7-1.6 1.8-4.2.2-5.9s-4.2-1.8-5.9-.2l-2.7 2.6c4.8-11 15.9-18.7 28.8-18.7 12.5 0 23.7 7.4 28.7 18.8.9 2.1 3.4 3.1 5.5 2.2 2-1 3-3.4 2-5.6zm8.3 26.7l-7.5-13.8c-.6-1.1-1.7-1.9-3-2.1-1-.2-2 .1-2.9.6-.6.3-1.2.8-1.6 1.4l-11.9 11c-1.7 1.6-1.8 4.2-.2 5.9 1.6 1.7 4.2 1.8 5.9.2l2.7-2.6c-4.8 11-15.9 18.7-28.8 18.7-12.5 0-23.7-7.4-28.7-18.8-.9-2.1-3.4-3.1-5.5-2.2-2.1.9-3.1 3.4-2.2 5.5 6.3 14.5 20.6 23.8 36.4 23.8 17.7 0 32.7-11.5 37.8-27.3l1.9 3.6c.8 1.4 2.2 2.2 3.7 2.2.7 0 1.4-.2 2-.5 2.2-1 3-3.6 1.9-5.6z"/>
  <circle fill="#D17171" cx="275.1" cy="74.6" r="20"/>
  <path fill="#FFF" d="M271 85.1c0-2 1.7-3.4 4.2-3.4s4.1 1.4 4.1 3.4-1.6 3.4-4.1 3.4-4.2-1.4-4.2-3.4zm1.5-6.4l-1.1-17.1h7.4l-1 17.1h-5.3z"/>
  <path fill="#FFF" stroke="#AAA" stroke-width="4" stroke-miterlimit="10" d="M387.6 34.7c-6.3-14.5-20.6-23.8-36.4-23.8-17.7 0-32.7 11.5-37.8 27.3l-1.9-3.6c-1.1-2-3.7-2.8-5.7-1.7s-2.8 3.7-1.7 5.7l7.5 13.8c.6 1.1 1.7 1.9 3 2.1h.7c.8 0 1.6-.3 2.3-.7.6-.3 1.1-.8 1.5-1.3l11.9-11c1.7-1.6 1.8-4.2.2-5.9s-4.2-1.8-5.9-.2l-2.7 2.6c4.8-11 15.9-18.7 28.8-18.7 12.5 0 23.7 7.4 28.7 18.8.9 2.1 3.4 3.1 5.5 2.2 2-1 3-3.4 2-5.6zm8.3 26.7l-7.5-13.8c-.6-1.1-1.7-1.9-3-2.1-1-.2-2 .1-2.9.6-.6.3-1.2.8-1.6 1.4l-11.9 11c-1.7 1.6-1.8 4.2-.2 5.9 1.6 1.7 4.2 1.8 5.9.2l2.7-2.6c-4.8 11-15.9 18.7-28.8 18.7-12.5 0-23.7-7.4-28.7-18.8-.9-2.1-3.4-3.1-5.5-2.2-2.1.9-3.1 3.4-2.2 5.5 6.3 14.5 20.6 23.8 36.4 23.8 17.7 0 32.7-11.5 37.8-27.3l1.9 3.6c.8 1.4 2.2 2.2 3.7 2.2.7 0 1.4-.2 2-.5 2.2-1 3-3.6 1.9-5.6z"/>
  <circle fill="#DDB926" cx="375.1" cy="74.6" r="20"/>
  <g fill="#FFF">
    <circle cx="375.1" cy="84.9" r="3.7"/>
    <path d="M359.7 73.3c-.4 0-.8-.1-1.1-.4-.7-.6-.8-1.6-.2-2.3 4-4.7 9.9-7.4 16.1-7.4 6.1 0 12 2.7 16 7.3.6.7.5 1.7-.2 2.3-.7.6-1.7.5-2.3-.2-3.4-3.9-8.3-6.2-13.5-6.2-5.2 0-10.2 2.3-13.6 6.3-.3.4-.7.6-1.2.6z"/>
    <path d="M363.6 77.8c-.4 0-.7-.1-1.1-.4-.7-.6-.8-1.6-.2-2.3 3.1-3.6 7.5-5.7 12.2-5.7 4.7 0 9.1 2 12.2 5.6.6.7.5 1.7-.2 2.3-.7.6-1.7.5-2.3-.2-2.4-2.8-6-4.5-9.7-4.5-3.8 0-7.3 1.6-9.7 4.5-.3.5-.8.7-1.2.7z"/>
    <path d="M367.8 81.5c-.4 0-.7-.1-1-.4-.7-.6-.8-1.6-.2-2.3 2-2.4 4.9-3.8 8-3.8 3.1 0 6 1.4 8 3.7.6.7.5 1.7-.2 2.3-.7.6-1.7.5-2.3-.2-1.4-1.6-3.4-2.6-5.5-2.6s-4.2.9-5.5 2.6c-.4.5-.9.7-1.3.7z"/>
  </g>
  <path fill="none" stroke="#DDB926" stroke-width="6.836" stroke-linecap="round" stroke-miterlimit="10" d="M364.6 85.9L383.2 61"/>
  <path fill="none" stroke="#FFF" stroke-width="2.279" stroke-linecap="round" stroke-miterlimit="10" d="M364.6 85.9L383.2 61"/>
  <path fill="#FFF" stroke="#AAA" stroke-width="4" stroke-miterlimit="10" d="M487.6 34.7c-6.3-14.5-20.6-23.8-36.4-23.8-17.7 0-32.7 11.5-37.8 27.3l-1.9-3.6c-1.1-2-3.7-2.8-5.7-1.7s-2.8 3.7-1.7 5.7l7.5 13.8c.6 1.1 1.7 1.9 3 2.1h.7c.8 0 1.6-.3 2.3-.7.6-.3 1.1-.8 1.5-1.3l11.9-11c1.7-1.6 1.8-4.2.2-5.9s-4.2-1.8-5.9-.2l-2.7 2.6c4.8-11 15.9-18.7 28.8-18.7 12.5 0 23.7 7.4 28.7 18.8.9 2.1 3.4 3.1 5.5 2.2 2-1 3-3.4 2-5.6zm8.3 26.7l-7.5-13.8c-.6-1.1-1.7-1.9-3-2.1-1-.2-2 .1-2.9.6-.6.3-1.2.8-1.6 1.4l-11.9 11c-1.7 1.6-1.8 4.2-.2 5.9 1.6 1.7 4.2 1.8 5.9.2l2.7-2.6c-4.8 11-15.9 18.7-28.8 18.7-12.5 0-23.7-7.4-28.7-18.8-.9-2.1-3.4-3.1-5.5-2.2-2.1.9-3.1 3.4-2.2 5.5 6.3 14.5 20.6 23.8 36.4 23.8 17.7 0 32.7-11.5 37.8-27.3l1.9 3.6c.8 1.4 2.2 2.2 3.7 2.2.7 0 1.4-.2 2-.5 2.2-1 3-3.6 1.9-5.6z"/>
  <circle fill="#BF97C4" cx="475.1" cy="74.6" r="20"/>
  <path fill="none" stroke="#FFF" stroke-width="6" stroke-miterlimit="10" d="M469 63v24m11-24v24"/>
  <g fill="#FFF" stroke="#AAA" stroke-width="4" stroke-miterlimit="10">
    <circle cx="550.1" cy="50.4" r="8.1"/>
    <circle cx="550.1" cy="25.4" r="8.1"/>
    <circle cx="550.1" cy="75.4" r="8.1"/>
  </g>
  <path fill="#FFF" stroke="#AAA" stroke-width="5" stroke-miterlimit="10" d="M695.9 41.5c-2.1-2.1-6-.9-8.6-1.5-3.6-.8-4.6-4-6-7.1-1.4-3.4 1-5.1 2.1-8.1.9-2.6 2.6-3.7 1.2-6.7-.9-1.9-3.4-4.6-5.7-4.6-2.3-.1-5.5 5-7.9 5.6-3.8 1-9.2-1.3-10.7-4.4-2-4.2.6-10.3-5.7-10.7-2.5-.2-4.5-.5-5.5.3-1.5 1.3-1.4 4.3-2.6 7-1 2.4-3.2 4.1-5.4 5.2-2.1 1-4.1 1.5-6.5-.1-3.7-2.4-5.4-8-10.8-4.4-1.9 1.3-4.3 2.1-4.3 4.5s3.2 6 3.2 8.3c-.1 4-1.3 6.7-5.1 8.9-2.4 1.4-6.9.5-9.6.5-2.4-.1-3.7 1.3-3.9 6.9-.2 6.7 10.6 3.5 10.2 11.4-.2 3.6 1.4 6-1.4 8.6-2.1 1.9-6.8 2.8-6.4 6 .4 3.7 2.3 7 4.4 7.4 2.5.4 5.7-1.7 8.4-1.2 2.8.5 8.4 2.9 8.8 6.6.4 3.3-1.5 7.1-.7 10.3.9 3.9 4.7 5.2 8.2 4.2 1.5-.5 2.8-2.4 3.5-4.2.6-1.6 1.9-3.4 3.4-4.2 3.9-1.9 9.5-.1 11.3 4.1.7 1.7 2.4 5.3 4.5 5.8.9.2 5.3.7 8.1-1.3s-1.2-7.9 1.3-12.7c1.4-2.7 5-5.1 7.9-5.2s5 2.5 6.8 3c6.1 1.8 9.4-6.8 6.7-10.6-1.2-1.7-4.7-2.9-5.4-4.7-.5-1.2.7-3.8 1-5.5.9-6.5 9-5.7 11.7-8.9 1-1.5.7-7.2-.5-8.5zm-45.6 25.3c-8.6 0-15.5-7-15.5-15.5s7-15.5 15.5-15.5c8.6 0 15.5 7 15.5 15.5s-6.9 15.5-15.5 15.5z"/>
  <path fill="none" stroke="#2690BA" stroke-width="3" stroke-miterlimit="10" d="M788.5 34.4c-6.4-14.9-21-24.4-37.2-24.4-18.1 0-33.5 11.7-38.7 27.9l-2-3.6c-1.1-2.1-3.7-2.9-5.8-1.7-2.1 1.1-2.9 3.7-1.7 5.8l7.7 14.1c.6 1.2 1.8 2 3.1 2.2.2 0 .5.1.7.1.8 0 1.7-.3 2.4-.7.6-.3 1.2-.8 1.6-1.4l12.1-11.4c1.7-1.6 1.8-4.3.2-6.1-1.6-1.7-4.3-1.8-6.1-.2l-2.8 2.6c4.9-11.2 16.3-19.1 29.5-19.1 12.8 0 24.3 7.6 29.4 19.3.9 2.2 3.5 3.2 5.7 2.2 1.9-.9 2.9-3.5 1.9-5.6zm8.5 27.3l-7.7-14.1c-.6-1.2-1.8-2-3.1-2.2-1-.2-2.1.1-3 .6-.7.3-1.2.8-1.6 1.4l-12.1 11.4c-1.7 1.6-1.8 4.3-.2 6.1 1.6 1.7 4.3 1.8 6.1.2l2.8-2.6c-4.9 11.2-16.3 19.1-29.5 19.1-12.8 0-24.3-7.6-29.4-19.3-.9-2.2-3.5-3.2-5.7-2.2-2.2.9-3.2 3.5-2.2 5.7 6.5 14.8 21.1 24.4 37.2 24.4 18.1 0 33.5-11.7 38.7-27.9l2 3.6c.8 1.4 2.3 2.2 3.8 2.2.7 0 1.4-.2 2.1-.5 2.1-1.3 2.9-3.9 1.8-5.9z"/>
  <path fill="#2690BA" d="M888.1 34.5c-6.4-14.7-20.9-24.2-36.9-24.2-17.9 0-33.1 11.6-38.3 27.6l-2-3.6c-1.1-2.1-3.7-2.8-5.8-1.7s-2.8 3.7-1.7 5.8l7.6 14c.6 1.2 1.8 2 3.1 2.2.2 0 .4.1.7.1.8 0 1.7-.3 2.4-.7.6-.3 1.2-.8 1.5-1.4l11.9-11.2c1.7-1.6 1.8-4.3.2-6-1.6-1.7-4.3-1.8-6-.2l-2.8 2.6c4.9-11.1 16.1-18.9 29.2-18.9 12.6 0 24 7.5 29.1 19 .9 2.2 3.4 3.1 5.6 2.2 2.2-.9 3.2-3.4 2.2-5.6zm8.4 27l-7.6-14c-.6-1.2-1.8-2-3.1-2.2-1-.2-2.1.1-2.9.6-.7.3-1.2.8-1.6 1.4l-11.9 11.2c-1.7 1.6-1.8 4.3-.2 6 1.6 1.7 4.3 1.8 6 .2l2.8-2.6C873.1 73.2 861.9 81 848.8 81c-12.6 0-24-7.5-29.1-19.1-.9-2.2-3.4-3.1-5.6-2.2-2.2.9-3.1 3.4-2.2 5.6 6.4 14.7 20.9 24.2 36.9 24.2 17.9 0 33.1-11.6 38.3-27.6l2 3.6c.8 1.4 2.2 2.2 3.7 2.2.7 0 1.4-.2 2-.5 2-1 2.8-3.6 1.7-5.7z"/>
  <g fill="none" stroke="#3D3D3D" stroke-width="1.53" stroke-miterlimit="10">
    <path d="M988.5 35.6c-.1-.4-.2-.7-.3-1.1-.2-.4-.3-.7-.5-1"/>
    <path stroke-dasharray="2.3317,1.5545" d="M987 32.1c-6.9-13.3-20.6-21.7-35.7-21.7-17.2 0-31.9 10.7-37.7 25.8"/>
    <path d="M913.3 36.9c-.1.4-.3.7-.4 1.1l-.5-1"/>
    <path stroke-dasharray="2.2794,1.5196" d="M911.7 35.7l-.7-1.3c-1.1-2.1-3.7-2.8-5.8-1.7-2.1 1.1-2.8 3.7-1.7 5.8l7.6 14c.6 1.2 1.8 2 3.1 2.2.2 0 .4.1.7.1.8 0 1.7-.3 2.4-.7.6-.3 1.2-.8 1.5-1.4l11.9-11.2c1.7-1.6 1.8-4.3.2-6-1.6-1.7-4.3-1.8-6-.2l-1.4 1.3"/>
    <path d="M923 37l-.8.8c.2-.4.3-.7.5-1"/>
    <path stroke-dasharray="2.2651,1.5101" d="M923.3 35.4c5.4-9.8 15.9-16.5 28-16.5 12.6 0 24 7.5 29.1 19 .9 2.2 3.4 3.1 5.6 2.2 1.5-.7 2.5-2.2 2.6-3.7"/>
    <path d="M996.9 62.6c-.1-.4-.2-.7-.4-1.1l-.5-1"/>
    <path stroke-dasharray="2.3442,1.5628" d="M995.2 59.2l-6.3-11.6c-.6-1.2-1.8-2-3.1-2.2-1-.2-2.1.1-2.9.6-.7.3-1.2.8-1.6 1.4l-11.9 11.2c-1.7 1.6-1.8 4.3-.2 6 1.6 1.7 4.3 1.8 6 .2l1.4-1.3"/>
    <path d="M977 63l.8-.8c-.2.4-.3.7-.5 1"/>
    <path stroke-dasharray="2.2997,1.5332" d="M976.7 64.6c-5.4 9.8-15.9 16.5-28 16.5-12.6 0-24-7.5-29.1-19.1-.9-2.2-3.4-3.1-5.6-2.2-2.2.9-3.1 3.4-2.2 5.6 6.4 14.7 20.9 24.2 36.9 24.2 17.2 0 32-10.7 37.7-25.8"/>
    <path d="M986.7 63.1c.1-.4.3-.7.4-1.1l.5 1"/>
    <path stroke-dasharray="2.0656,1.377" d="M988.3 64.2l.8 1.4c.8 1.4 2.2 2.2 3.7 2.2.7 0 1.4-.2 2-.5 1.5-.8 2.3-2.4 2.2-4"/>
  </g>
  <path opacity=".7" d="M922.3 23.5h21.6V80h-21.6zm31.8 0h21.6V80h-21.6z" fill="#2690BA"/>
  <g fill="none" stroke="#3D3D3D" stroke-width="1.546" stroke-miterlimit="10">
    <path d="M1088.9 35.5c-.1-.4-.2-.7-.3-1.1-.2-.4-.3-.7-.5-1.1"/>
    <path stroke-dasharray="2.3565,1.571" d="M1087.4 31.9c-6.9-13.4-20.8-21.9-36.1-21.9-17.4 0-32.3 10.9-38.1 26.1"/>
    <path d="M1012.9 36.8c-.1.4-.3.7-.4 1.1l-.6-1"/>
    <path stroke-dasharray="2.3037,1.5358" d="M1011.3 35.5l-.7-1.3c-1.1-2.1-3.7-2.9-5.8-1.7-2.1 1.1-2.9 3.7-1.7 5.8l7.7 14.1c.6 1.2 1.8 2 3.1 2.2.2 0 .5.1.7.1.8 0 1.7-.3 2.4-.7.6-.3 1.2-.8 1.6-1.4l12.1-11.4c1.7-1.6 1.8-4.3.2-6.1-1.6-1.7-4.3-1.8-6.1-.2l-1.4 1.3"/>
    <path d="M1022.7 36.8l-.8.8c.2-.4.3-.7.5-1.1"/>
    <path stroke-dasharray="2.2892,1.5261" d="M1023 35.2c5.4-9.9 16.1-16.7 28.3-16.7 12.8 0 24.3 7.6 29.4 19.3.9 2.2 3.5 3.2 5.7 2.2 1.6-.7 2.5-2.2 2.6-3.8"/>
    <path d="M1097.4 62.7c-.1-.4-.2-.7-.4-1.1l-.6-1"/>
    <path stroke-dasharray="2.3692,1.5794" d="M1095.7 59.2l-6.4-11.7c-.6-1.2-1.8-2-3.1-2.2-1-.2-2.1.1-3 .6-.7.3-1.2.8-1.6 1.4l-12.1 11.4c-1.7 1.6-1.8 4.3-.2 6.1 1.6 1.7 4.3 1.8 6.1.2l1.4-1.3"/>
    <path d="M1077.3 63.2l.8-.8c-.2.4-.3.7-.5 1.1"/>
    <path stroke-dasharray="2.3242,1.5495" d="M1077 64.8c-5.4 9.9-16.1 16.7-28.3 16.7-12.8 0-24.3-7.6-29.4-19.3-.9-2.2-3.5-3.2-5.7-2.2-2.2.9-3.2 3.5-2.2 5.7 6.5 14.8 21.1 24.4 37.2 24.4 17.4 0 32.3-10.9 38.1-26.1"/>
    <path d="M1087.1 63.2c.1-.4.3-.7.4-1.1l.6 1"/>
    <path stroke-dasharray="2.0875,1.3917" d="M1088.7 64.4l.8 1.4c.8 1.4 2.3 2.2 3.8 2.2.7 0 1.4-.2 2.1-.5 1.5-.8 2.3-2.4 2.2-4.1"/>
  </g>
  <g opacity=".7">
    <circle fill="#2690BA" cx="1050.7" cy="50.2" r="25"/>
    <g fill="#FFF">
      <circle cx="1050.7" cy="63.1" r="4.6"/>
      <path d="M1032 48.9c-.5 0-.9-.2-1.3-.5-.9-.7-1-2-.2-2.9 5-5.9 12.3-9.3 20-9.3 7.7 0 14.9 3.3 20 9.2.7.8.6 2.1-.2 2.9-.8.7-2.1.6-2.9-.2-4.3-4.9-10.4-7.8-16.9-7.8-6.5 0-12.7 2.9-17 7.8-.4.6-.9.8-1.5.8z"/>
      <path d="M1036.8 54.5c-.5 0-.9-.2-1.3-.5-.9-.7-1-2-.2-2.9 3.8-4.5 9.4-7.1 15.3-7.1 5.8 0 11.4 2.6 15.2 7 .7.9.6 2.1-.2 2.9-.9.7-2.1.6-2.9-.2-3-3.6-7.5-5.6-12.1-5.6-4.7 0-9.1 2.1-12.2 5.6-.5.5-1 .8-1.6.8z"/>
      <path d="M1042 59.1c-.5 0-.9-.2-1.3-.5-.9-.7-1-2-.3-2.9 2.5-3 6.1-4.7 10-4.7 3.9 0 7.5 1.7 10 4.7.7.9.6 2.1-.3 2.9-.9.7-2.1.6-2.9-.3-1.7-2-4.2-3.2-6.9-3.2s-5.2 1.2-6.9 3.2c-.2.5-.8.8-1.4.8z"/>
    </g>
    <path fill="none" stroke="#2690BA" stroke-width="7.73" stroke-linecap="round" stroke-miterlimit="10" d="M1038.1 64.7l23.2-31.1"/>
    <path fill="none" stroke="#FFF" stroke-width="3.865" stroke-linecap="round" stroke-miterlimit="10" d="M1038.1 64.7l23.2-31.1"/>
  </g>
  <g fill="#2690BA">
    <path d="M1197.1 64.9c-7.1-16.3-23.2-26.8-41-26.8-19.9 0-36.8 12.9-42.6 30.7l-2.2-4c-1.2-2.3-4.1-3.1-6.4-1.9-2.3 1.2-3.1 4.1-1.9 6.4l8.5 15.5c.7 1.3 2 2.2 3.4 2.4.2 0 .5.1.7.1.9 0 1.8-.3 2.6-.8.7-.4 1.3-.9 1.7-1.5l13.3-12.5c1.9-1.8 2-4.8.2-6.7-1.8-1.9-4.8-2-6.7-.2l-3.1 2.9c5.4-12.3 17.9-21 32.4-21 14 0 26.7 8.3 32.3 21.2 1 2.4 3.8 3.5 6.2 2.4 2.6-1 3.6-3.8 2.6-6.2z"/>
    <circle cx="1136.1" cy="20.3" r="7.6"/>
    <circle cx="1171.8" cy="20.3" r="7.6"/>
  </g>
</svg>
