<svg xmlns="http://www.w3.org/2000/svg" viewBox="0 0 1000 100" width="100%" height="100%">
  <!-- Sync (grey, hollow) -->
  <view id="sync" viewBox="0 0 100 100"/>
  <path fill="#FFF" stroke="#AAA" stroke-width="4" stroke-miterlimit="10" d="M87.6 34.7C81.3 20.2 67 10.9 51.2 10.9c-17.7 0-32.7 11.5-37.8 27.3l-1.9-3.6c-1.1-2-3.7-2.8-5.7-1.7S3 36.6 4.1 38.6l7.5 13.8c.6 1.1 1.7 1.9 3 2.1h.7c.8 0 1.6-.3 2.3-.7.6-.3 1.1-.8 1.5-1.3l11.9-11c1.7-1.6 1.8-4.2.2-5.9-1.6-1.7-4.2-1.8-5.9-.2L22.6 38c4.8-11 15.9-18.7 28.8-18.7 12.5 0 23.7 7.4 28.7 18.8.9 2.1 3.4 3.1 5.5 2.2 2-1 3-3.4 2-5.6zm8.3 26.7l-7.5-13.8c-.6-1.1-1.7-1.9-3-2.1-1-.2-2 .1-2.9.6-.6.3-1.2.8-1.6 1.4L69 58.5c-1.7 1.6-1.8 4.2-.2 5.9 1.6 1.7 4.2 1.8 5.9.2l2.7-2.6c-4.8 11-15.9 18.7-28.8 18.7-12.5 0-23.7-7.4-28.7-18.8-.9-2.1-3.4-3.1-5.5-2.2-2.1.9-3.1 3.4-2.2 5.5C18.5 79.7 32.8 89 48.6 89c17.7 0 32.7-11.5 37.8-27.3l1.9 3.6c.8 1.4 2.2 2.2 3.7 2.2.7 0 1.4-.2 2-.5 2.2-1 3-3.6 1.9-5.6z"/>
  <!-- Ok overlay -->
  <view id="overlay-ok" viewBox="100 0 100 100"/>
  <circle fill="#73B371" cx="150" cy="50" r="40"/>
  <path fill="none" stroke="#FFF" stroke-width="10.479" stroke-linecap="round" stroke-linejoin="round" stroke-miterlimit="10" d="M127.4 54.5L145 69l23.5-36.2"/>
  <!-- Error overlay -->
  <view id="overlay-error" viewBox="200 0 100 100"/>
  <circle fill="#D17171" cx="250" cy="50" r="40"/>
  <path fill="#FFF" d="M241.9 71.2c0-4 3.4-6.9 8.4-6.9 4.9 0 8.2 2.9 8.3 6.9 0 3.9-3.2 6.9-8.3 6.9s-8.4-3-8.4-6.9zm3.1-13L242.8 24h14.8l-2 34.3H245z"/>
  <!-- Offline overlay -->
  <view id="overlay-offline" viewBox="300 0 100 100"/>
  <circle fill="#DDB926" cx="350" cy="50" r="40"/>
  <g fill="#FFF">
    <circle cx="350" cy="70.7" r="7.4"/>
    <path d="M319.3 47.5c-.7 0-1.5-.3-2.1-.8-1.4-1.2-1.5-3.2-.4-4.6 8.1-9.4 19.8-14.8 32.1-14.8s23.9 5.4 32 14.7c1.2 1.4 1 3.4-.3 4.6-1.4 1.2-3.4 1-4.6-.3-6.8-7.9-16.7-12.4-27.1-12.4-10.5 0-20.4 4.6-27.2 12.6-.5.6-1.4 1-2.4 1z"/>
    <path d="M327 56.5c-.7 0-1.5-.3-2.1-.8-1.4-1.2-1.5-3.2-.4-4.6 6.1-7.2 15-11.3 24.5-11.3 9.4 0 18.2 4.1 24.4 11.2 1.2 1.4 1 3.4-.4 4.6-1.4 1.2-3.4 1-4.6-.4-4.9-5.7-11.9-9-19.4-9-7.5 0-14.6 3.3-19.5 9-.6.9-1.5 1.3-2.5 1.3z"/>
    <path d="M335.4 63.8c-.7 0-1.5-.2-2.1-.8-1.4-1.1-1.6-3.2-.4-4.6 4-4.8 9.9-7.6 16.1-7.6 6.2 0 12 2.7 16 7.5 1.2 1.4 1 3.4-.4 4.6-1.4 1.2-3.4 1-4.6-.4-2.7-3.3-6.8-5.2-11-5.2-4.3 0-8.3 1.9-11.1 5.2-.6.9-1.5 1.3-2.5 1.3z"/>
  </g>
  <path fill="none" stroke="#DDB926" stroke-width="13.672" stroke-linecap="round" stroke-miterlimit="10" d="M329.1 72.8L366.4 23"/>
  <path fill="none" stroke="#FFF" stroke-width="4.557" stroke-linecap="round" stroke-miterlimit="10" d="M329.1 72.8L366.4 23"/>
  <!-- Pause overlay -->
  <view id="overlay-pause" viewBox="400 0 100 100"/>
  <circle fill="#BF97C4" cx="450" cy="50" r="40"/>
  <path fill="none" stroke="#FFF" stroke-width="12" stroke-miterlimit="10" d="M438 26v48m22-48v48"/>
  <!-- Hollow -->
  <g transform="translate(-200 0)">
    <path fill="none" stroke="#2690BA" stroke-width="3" stroke-miterlimit="10" d="M788.5 34.4c-6.4-14.9-21-24.4-37.2-24.4-18.1 0-33.5 11.7-38.7 27.9l-2-3.6c-1.1-2.1-3.7-2.9-5.8-1.7-2.1 1.1-2.9 3.7-1.7 5.8l7.7 14.1c.6 1.2 1.8 2 3.1 2.2.2 0 .5.1.7.1.8 0 1.7-.3 2.4-.7.6-.3 1.2-.8 1.6-1.4l12.1-11.4c1.7-1.6 1.8-4.3.2-6.1-1.6-1.7-4.3-1.8-6.1-.2l-2.8 2.6c4.9-11.2 16.3-19.1 29.5-19.1 12.8 0 24.3 7.6 29.4 19.3.9 2.2 3.5 3.2 5.7 2.2 1.9-.9 2.9-3.5 1.9-5.6zm8.5 27.3l-7.7-14.1c-.6-1.2-1.8-2-3.1-2.2-1-.2-2.1.1-3 .6-.7.3-1.2.8-1.6 1.4l-12.1 11.4c-1.7 1.6-1.8 4.3-.2 6.1 1.6 1.7 4.3 1.8 6.1.2l2.8-2.6c-4.9 11.2-16.3 19.1-29.5 19.1-12.8 0-24.3-7.6-29.4-19.3-.9-2.2-3.5-3.2-5.7-2.2-2.2.9-3.2 3.5-2.2 5.7 6.5 14.8 21.1 24.4 37.2 24.4 18.1 0 33.5-11.7 38.7-27.9l2 3.6c.8 1.4 2.3 2.2 3.8 2.2.7 0 1.4-.2 2.1-.5 2.1-1.3 2.9-3.9 1.8-5.9z"/>
  </g>
  <!-- Filled -->
  <g transform="translate(-200 0)">
    <path fill="#2690BA" d="M888.1 34.5c-6.4-14.7-20.9-24.2-36.9-24.2-17.9 0-33.1 11.6-38.3 27.6l-2-3.6c-1.1-2.1-3.7-2.8-5.8-1.7s-2.8 3.7-1.7 5.8l7.6 14c.6 1.2 1.8 2 3.1 2.2.2 0 .4.1.7.1.8 0 1.7-.3 2.4-.7.6-.3 1.2-.8 1.5-1.4l11.9-11.2c1.7-1.6 1.8-4.3.2-6-1.6-1.7-4.3-1.8-6-.2l-2.8 2.6c4.9-11.1 16.1-18.9 29.2-18.9 12.6 0 24 7.5 29.1 19 .9 2.2 3.4 3.1 5.6 2.2 2.2-.9 3.2-3.4 2.2-5.6zm8.4 27l-7.6-14c-.6-1.2-1.8-2-3.1-2.2-1-.2-2.1.1-2.9.6-.7.3-1.2.8-1.6 1.4l-11.9 11.2c-1.7 1.6-1.8 4.3-.2 6 1.6 1.7 4.3 1.8 6 .2l2.8-2.6C873.1 73.2 861.9 81 848.8 81c-12.6 0-24-7.5-29.1-19.1-.9-2.2-3.4-3.1-5.6-2.2-2.2.9-3.1 3.4-2.2 5.6 6.4 14.7 20.9 24.2 36.9 24.2 17.9 0 33.1-11.6 38.3-27.6l2 3.6c.8 1.4 2.2 2.2 3.7 2.2.7 0 1.4-.2 2-.5 2-1 2.8-3.6 1.7-5.7z"/>
  </g>
  <!-- Pause -->
  <g transform="translate(-200 0)">
    <g fill="none" stroke="#3D3D3D" stroke-width="1.53" stroke-miterlimit="10">
      <path d="M988.5 35.6c-.1-.4-.2-.7-.3-1.1-.2-.4-.3-.7-.5-1"/>
      <path stroke-dasharray="2.3317,1.5545" d="M987 32.1c-6.9-13.3-20.6-21.7-35.7-21.7-17.2 0-31.9 10.7-37.7 25.8"/>
      <path d="M913.3 36.9c-.1.4-.3.7-.4 1.1l-.5-1"/>
      <path stroke-dasharray="2.2794,1.5196" d="M911.7 35.7l-.7-1.3c-1.1-2.1-3.7-2.8-5.8-1.7-2.1 1.1-2.8 3.7-1.7 5.8l7.6 14c.6 1.2 1.8 2 3.1 2.2.2 0 .4.1.7.1.8 0 1.7-.3 2.4-.7.6-.3 1.2-.8 1.5-1.4l11.9-11.2c1.7-1.6 1.8-4.3.2-6-1.6-1.7-4.3-1.8-6-.2l-1.4 1.3"/>
      <path d="M923 37l-.8.8c.2-.4.3-.7.5-1"/>
      <path stroke-dasharray="2.2651,1.5101" d="M923.3 35.4c5.4-9.8 15.9-16.5 28-16.5 12.6 0 24 7.5 29.1 19 .9 2.2 3.4 3.1 5.6 2.2 1.5-.7 2.5-2.2 2.6-3.7"/>
      <path d="M996.9 62.6c-.1-.4-.2-.7-.4-1.1l-.5-1"/>
      <path stroke-dasharray="2.3442,1.5628" d="M995.2 59.2l-6.3-11.6c-.6-1.2-1.8-2-3.1-2.2-1-.2-2.1.1-2.9.6-.7.3-1.2.8-1.6 1.4l-11.9 11.2c-1.7 1.6-1.8 4.3-.2 6 1.6 1.7 4.3 1.8 6 .2l1.4-1.3"/>
      <path d="M977 63l.8-.8c-.2.4-.3.7-.5 1"/>
      <path stroke-dasharray="2.2997,1.5332" d="M976.7 64.6c-5.4 9.8-15.9 16.5-28 16.5-12.6 0-24-7.5-29.1-19.1-.9-2.2-3.4-3.1-5.6-2.2-2.2.9-3.1 3.4-2.2 5.6 6.4 14.7 20.9 24.2 36.9 24.2 17.2 0 32-10.7 37.7-25.8"/>
      <path d="M986.7 63.1c.1-.4.3-.7.4-1.1l.5 1"/>
      <path stroke-dasharray="2.0656,1.377" d="M988.3 64.2l.8 1.4c.8 1.4 2.2 2.2 3.7 2.2.7 0 1.4-.2 2-.5 1.5-.8 2.3-2.4 2.2-4"/>
    </g>
    <path opacity=".7" d="M922.3 23.5h21.6V80h-21.6zm31.8 0h21.6V80h-21.6z" fill="#2690BA"/>
  </g>
  <!-- Offline -->
  <g transform="translate(-200 0)">
    <g fill="none" stroke="#3D3D3D" stroke-width="1.546" stroke-miterlimit="10">
      <path d="M1088.9 35.5c-.1-.4-.2-.7-.3-1.1-.2-.4-.3-.7-.5-1.1"/>
      <path stroke-dasharray="2.3565,1.571" d="M1087.4 31.9c-6.9-13.4-20.8-21.9-36.1-21.9-17.4 0-32.3 10.9-38.1 26.1"/>
      <path d="M1012.9 36.8c-.1.4-.3.7-.4 1.1l-.6-1"/>
      <path stroke-dasharray="2.3037,1.5358" d="M1011.3 35.5l-.7-1.3c-1.1-2.1-3.7-2.9-5.8-1.7-2.1 1.1-2.9 3.7-1.7 5.8l7.7 14.1c.6 1.2 1.8 2 3.1 2.2.2 0 .5.1.7.1.8 0 1.7-.3 2.4-.7.6-.3 1.2-.8 1.6-1.4l12.1-11.4c1.7-1.6 1.8-4.3.2-6.1-1.6-1.7-4.3-1.8-6.1-.2l-1.4 1.3"/>
      <path d="M1022.7 36.8l-.8.8c.2-.4.3-.7.5-1.1"/>
      <path stroke-dasharray="2.2892,1.5261" d="M1023 35.2c5.4-9.9 16.1-16.7 28.3-16.7 12.8 0 24.3 7.6 29.4 19.3.9 2.2 3.5 3.2 5.7 2.2 1.6-.7 2.5-2.2 2.6-3.8"/>
      <path d="M1097.4 62.7c-.1-.4-.2-.7-.4-1.1l-.6-1"/>
      <path stroke-dasharray="2.3692,1.5794" d="M1095.7 59.2l-6.4-11.7c-.6-1.2-1.8-2-3.1-2.2-1-.2-2.1.1-3 .6-.7.3-1.2.8-1.6 1.4l-12.1 11.4c-1.7 1.6-1.8 4.3-.2 6.1 1.6 1.7 4.3 1.8 6.1.2l1.4-1.3"/>
      <path d="M1077.3 63.2l.8-.8c-.2.4-.3.7-.5 1.1"/>
      <path stroke-dasharray="2.3242,1.5495" d="M1077 64.8c-5.4 9.9-16.1 16.7-28.3 16.7-12.8 0-24.3-7.6-29.4-19.3-.9-2.2-3.5-3.2-5.7-2.2-2.2.9-3.2 3.5-2.2 5.7 6.5 14.8 21.1 24.4 37.2 24.4 17.4 0 32.3-10.9 38.1-26.1"/>
      <path d="M1087.1 63.2c.1-.4.3-.7.4-1.1l.6 1"/>
      <path stroke-dasharray="2.0875,1.3917" d="M1088.7 64.4l.8 1.4c.8 1.4 2.3 2.2 3.8 2.2.7 0 1.4-.2 2.1-.5 1.5-.8 2.3-2.4 2.2-4.1"/>
    </g>
    <g opacity=".7">
      <circle fill="#2690BA" cx="1050.7" cy="50.2" r="25"/>
      <g fill="#FFF">
        <circle cx="1050.7" cy="63.1" r="4.6"/>
        <path d="M1032 48.9c-.5 0-.9-.2-1.3-.5-.9-.7-1-2-.2-2.9 5-5.9 12.3-9.3 20-9.3 7.7 0 14.9 3.3 20 9.2.7.8.6 2.1-.2 2.9-.8.7-2.1.6-2.9-.2-4.3-4.9-10.4-7.8-16.9-7.8-6.5 0-12.7 2.9-17 7.8-.4.6-.9.8-1.5.8z"/>
        <path d="M1036.8 54.5c-.5 0-.9-.2-1.3-.5-.9-.7-1-2-.2-2.9 3.8-4.5 9.4-7.1 15.3-7.1 5.8 0 11.4 2.6 15.2 7 .7.9.6 2.1-.2 2.9-.9.7-2.1.6-2.9-.2-3-3.6-7.5-5.6-12.1-5.6-4.7 0-9.1 2.1-12.2 5.6-.5.5-1 .8-1.6.8z"/>
        <path d="M1042 59.1c-.5 0-.9-.2-1.3-.5-.9-.7-1-2-.3-2.9 2.5-3 6.1-4.7 10-4.7 3.9 0 7.5 1.7 10 4.7.7.9.6 2.1-.3 2.9-.9.7-2.1.6-2.9-.3-1.7-2-4.2-3.2-6.9-3.2s-5.2 1.2-6.9 3.2c-.2.5-.8.8-1.4.8z"/>
      </g>
      <path fill="none" stroke="#2690BA" stroke-width="7.73" stroke-linecap="round" stroke-miterlimit="10" d="M1038.1 64.7l23.2-31.1"/>
      <path fill="none" stroke="#FFF" stroke-width="3.865" stroke-linecap="round" stroke-miterlimit="10" d="M1038.1 64.7l23.2-31.1"/>
    </g>
  </g>
  <!-- Error -->
  <g transform="translate(-200 0)" fill="#2690BA">
    <path d="M1197.1 64.9c-7.1-16.3-23.2-26.8-41-26.8-19.9 0-36.8 12.9-42.6 30.7l-2.2-4c-1.2-2.3-4.1-3.1-6.4-1.9-2.3 1.2-3.1 4.1-1.9 6.4l8.5 15.5c.7 1.3 2 2.2 3.4 2.4.2 0 .5.1.7.1.9 0 1.8-.3 2.6-.8.7-.4 1.3-.9 1.7-1.5l13.3-12.5c1.9-1.8 2-4.8.2-6.7-1.8-1.9-4.8-2-6.7-.2l-3.1 2.9c5.4-12.3 17.9-21 32.4-21 14 0 26.7 8.3 32.3 21.2 1 2.4 3.8 3.5 6.2 2.4 2.6-1 3.6-3.8 2.6-6.2z"/>
    <circle cx="1136.1" cy="20.3" r="7.6"/>
    <circle cx="1171.8" cy="20.3" r="7.6"/>
  </g>
</svg>
