<svg xmlns="http://www.w3.org/2000/svg" viewBox="0 0 500 100">
  <path fill="none" stroke="#2690BA" stroke-width="3" stroke-miterlimit="10" d="M88.55 34.37A40.62 40.62 0 0 0 51.3 9.95c-18.09 0-33.46 11.74-38.75 27.92l-1.99-3.64a4.297 4.297 0 0 0-7.54 4.12l7.71 14.14a4.291 4.291 0 0 0 3.09 2.18 4.304 4.304 0 0 0 3.06-.68c.62-.33 1.16-.79 1.56-1.37L30.5 41.28a4.297 4.297 0 0 0 .19-6.07 4.287 4.287 0 0 0-6.07-.18l-2.79 2.63c4.95-11.23 16.29-19.1 29.47-19.1 12.75 0 24.28 7.56 29.37 19.25a4.3 4.3 0 0 0 5.65 2.23 4.322 4.322 0 0 0 2.23-5.67zm8.43 27.28l-7.71-14.14a4.273 4.273 0 0 0-3.09-2.18c-1.04-.17-2.09.07-2.97.62-.66.33-1.23.81-1.64 1.42L69.5 58.72a4.297 4.297 0 0 0-.19 6.07 4.287 4.287 0 0 0 6.07.18l2.79-2.62c-4.94 11.23-16.29 19.1-29.48 19.1-12.75 0-24.28-7.56-29.37-19.25-.95-2.17-3.48-3.17-5.65-2.22a4.286 4.286 0 0 0-2.22 5.65A40.61 40.61 0 0 0 48.7 90.04c18.09 0 33.46-11.74 38.75-27.92l1.98 3.64A4.292 4.292 0 0 0 93.21 68c.69 0 1.4-.17 2.05-.53 2.08-1.12 2.85-3.73 1.72-5.82z"/>
  <path fill="#2690BA" d="M188.14 34.53a40.166 40.166 0 0 0-36.85-24.16c-17.9 0-33.11 11.62-38.34 27.63l-1.97-3.6a4.259 4.259 0 0 0-5.77-1.7 4.259 4.259 0 0 0-1.7 5.77l7.63 13.99a4.24 4.24 0 0 0 3.06 2.16c.22.03.45.05.67.05.84 0 1.65-.26 2.35-.72.62-.32 1.15-.78 1.54-1.36l11.94-11.23a4.25 4.25 0 1 0-5.83-6.19l-2.76 2.6c4.89-11.11 16.12-18.9 29.16-18.9a31.69 31.69 0 0 1 29.06 19.05 4.255 4.255 0 0 0 5.6 2.2 4.237 4.237 0 0 0 2.21-5.59zm8.34 27l-7.63-13.99a4.24 4.24 0 0 0-3.06-2.16c-1.03-.17-2.07.07-2.94.62-.65.33-1.22.8-1.63 1.4l-11.94 11.23a4.25 4.25 0 1 0 5.83 6.19l2.76-2.6c-4.89 11.11-16.12 18.9-29.17 18.9a31.69 31.69 0 0 1-29.06-19.05 4.256 4.256 0 0 0-5.59-2.2 4.247 4.247 0 0 0-2.2 5.59 40.196 40.196 0 0 0 36.86 24.16c17.9 0 33.11-11.61 38.34-27.63l1.96 3.6a4.243 4.243 0 0 0 3.74 2.22c.69 0 1.39-.17 2.03-.52a4.247 4.247 0 0 0 1.7-5.76z"/>
  <g fill="none" stroke="#3D3D3D" stroke-width="1.53" stroke-miterlimit="10">
    <path d="M288.45 35.63c-.05-.37-.16-.74-.31-1.1-.15-.35-.31-.7-.47-1.05"/>
    <path stroke-dasharray="2.3317,1.5545" d="M286.98 32.09a40.184 40.184 0 0 0-35.69-21.72c-17.22 0-31.95 10.75-37.7 25.82"/>
    <path d="M213.32 36.92c-.13.36-.25.72-.37 1.08l-.55-1"/>
    <path stroke-dasharray="2.2794,1.5196" d="M211.67 35.66l-.69-1.26a4.259 4.259 0 0 0-5.77-1.7 4.259 4.259 0 0 0-1.7 5.77l7.63 13.99a4.24 4.24 0 0 0 3.06 2.16c.22.03.45.05.67.05.84 0 1.65-.26 2.35-.72.62-.32 1.15-.78 1.54-1.36l11.94-11.23a4.25 4.25 0 1 0-5.83-6.19l-1.37 1.29"/>
    <path d="M222.96 36.99l-.84.79c.15-.35.32-.7.48-1.04"/>
    <path stroke-dasharray="2.2651,1.5101" d="M223.3 35.39c5.37-9.82 15.9-16.52 27.99-16.52a31.69 31.69 0 0 1 29.06 19.05 4.255 4.255 0 0 0 5.6 2.2 4.23 4.23 0 0 0 2.55-3.73"/>
    <path d="M296.89 62.6c-.09-.37-.22-.72-.41-1.07l-.55-1.01"/>
    <path stroke-dasharray="2.3442,1.5628" d="M295.18 59.15l-6.33-11.61a4.24 4.24 0 0 0-3.06-2.16c-1.03-.17-2.07.07-2.94.62-.65.33-1.22.8-1.63 1.4l-11.94 11.23a4.25 4.25 0 1 0 5.83 6.19l1.36-1.28"/>
    <path d="M277.04 63.01l.84-.79c-.15.35-.31.7-.48 1.04"/>
    <path stroke-dasharray="2.2997,1.5332" d="M276.7 64.63c-5.37 9.81-15.9 16.5-27.98 16.5a31.69 31.69 0 0 1-29.06-19.05 4.256 4.256 0 0 0-5.59-2.2 4.247 4.247 0 0 0-2.2 5.59 40.196 40.196 0 0 0 36.86 24.16c17.22 0 31.95-10.75 37.7-25.82"/>
    <path d="M286.68 63.08c.13-.36.25-.72.37-1.08l.55 1.01"/>
    <path stroke-dasharray="2.0656,1.377" d="M288.26 64.22l.75 1.38a4.243 4.243 0 0 0 3.74 2.22 4.263 4.263 0 0 0 4.24-4.53"/>
  </g>
  <path opacity=".7" d="M222.32 23.45h21.61v56.47h-21.61zm31.76 0h21.61v56.47h-21.61z" fill="#2690BA"/>
  <g fill="none" stroke="#3D3D3D" stroke-width="1.546" stroke-miterlimit="10">
    <path d="M388.86 35.48a4.02 4.02 0 0 0-.32-1.11c-.15-.36-.31-.71-.48-1.06"/>
    <path stroke-dasharray="2.3565,1.571" d="M387.38 31.9a40.61 40.61 0 0 0-36.07-21.95c-17.4 0-32.29 10.86-38.1 26.09"/>
    <path d="M312.93 36.78c-.13.36-.26.73-.38 1.1l-.55-1.02"/>
    <path stroke-dasharray="2.3037,1.5358" d="M311.26 35.51l-.7-1.27a4.297 4.297 0 0 0-7.54 4.12l7.71 14.14a4.291 4.291 0 0 0 3.09 2.18 4.304 4.304 0 0 0 3.06-.68c.62-.33 1.16-.79 1.56-1.37l12.06-11.35a4.297 4.297 0 0 0 .19-6.07 4.287 4.287 0 0 0-6.07-.18l-1.39 1.3"/>
    <path d="M322.67 36.85l-.84.79c.16-.35.32-.7.49-1.05"/>
    <path stroke-dasharray="2.2892,1.5261" d="M323.01 35.24c5.43-9.93 16.07-16.69 28.29-16.69 12.75 0 24.28 7.56 29.37 19.25a4.3 4.3 0 0 0 5.65 2.23 4.299 4.299 0 0 0 2.58-3.77"/>
    <path d="M397.39 62.74a4.44 4.44 0 0 0-.41-1.08l-.56-1.02"/>
    <path stroke-dasharray="2.3692,1.5794" d="M395.66 59.25l-6.4-11.74a4.273 4.273 0 0 0-3.09-2.18c-1.04-.17-2.09.07-2.97.62-.66.33-1.23.81-1.64 1.42L369.5 58.72a4.297 4.297 0 0 0-.19 6.07 4.287 4.287 0 0 0 6.07.18l1.37-1.29"/>
    <path d="M377.33 63.15l.84-.79c-.16.35-.32.7-.49 1.05"/>
    <path stroke-dasharray="2.3242,1.5495" d="M376.98 64.78c-5.43 9.92-16.07 16.67-28.28 16.67-12.75 0-24.28-7.56-29.37-19.25-.95-2.17-3.48-3.17-5.65-2.22a4.286 4.286 0 0 0-2.22 5.65 40.61 40.61 0 0 0 37.25 24.41c17.41 0 32.29-10.86 38.1-26.1"/>
    <path d="M387.07 63.22c.13-.36.26-.73.38-1.1l.55 1.02"/>
    <path stroke-dasharray="2.0875,1.3917" d="M388.67 64.37l.76 1.4a4.292 4.292 0 0 0 3.78 2.24c.69 0 1.4-.17 2.05-.53a4.292 4.292 0 0 0 2.23-4.06"/>
  </g>
  <g opacity=".7">
    <circle fill="#2690BA" cx="350.72" cy="50.21" r="24.95"/>
    <g fill="#FFF">
      <circle cx="350.75" cy="63.11" r="4.63"/>
      <path d="M332 48.91c-.47 0-.94-.16-1.32-.49-.85-.73-.95-2.01-.22-2.86a26.362 26.362 0 0 1 20.05-9.25c7.66 0 14.94 3.34 19.97 9.16.73.85.64 2.13-.21 2.86-.85.74-2.13.64-2.86-.21a22.32 22.32 0 0 0-16.89-7.75c-6.52 0-12.7 2.85-16.96 7.83-.42.47-.99.71-1.56.71z"/>
      <path d="M336.8 54.48c-.46 0-.93-.16-1.31-.48a2.02 2.02 0 0 1-.23-2.86c3.81-4.5 9.37-7.07 15.25-7.07 5.84 0 11.38 2.55 15.19 7.01.73.85.63 2.13-.22 2.86s-2.14.63-2.86-.22a15.923 15.923 0 0 0-12.1-5.59c-4.68 0-9.11 2.06-12.16 5.64-.42.46-.99.71-1.56.71z"/>
      <path d="M342.03 59.07c-.46 0-.92-.15-1.3-.47-.86-.72-.98-2-.27-2.86 2.49-3 6.14-4.71 10.03-4.71 3.86 0 7.5 1.7 9.99 4.67a2.03 2.03 0 1 1-3.11 2.61 8.97 8.97 0 0 0-6.88-3.22c-2.68 0-5.2 1.18-6.91 3.25-.39.48-.97.73-1.55.73z"/>
    </g>
    <path fill="none" stroke="#2690BA" stroke-width="7.73" stroke-linecap="round" stroke-miterlimit="10" d="M338.08 64.66l23.24-31.06"/>
    <path fill="none" stroke="#FFF" stroke-width="3.865" stroke-linecap="round" stroke-miterlimit="10" d="M338.08 64.66l23.24-31.06"/>
  </g>
  <g fill="#2690BA">
    <path d="M497.11 64.93a44.633 44.633 0 0 0-40.95-26.84c-19.89 0-36.79 12.91-42.6 30.7l-2.18-4a4.723 4.723 0 1 0-8.29 4.53l8.48 15.55a4.735 4.735 0 0 0 4.14 2.46c.93 0 1.84-.28 2.61-.8.68-.36 1.28-.87 1.71-1.51l13.26-12.48a4.725 4.725 0 1 0-6.48-6.88l-3.07 2.89c5.44-12.34 17.91-21 32.41-21 14.02 0 26.69 8.31 32.29 21.17a4.73 4.73 0 0 0 6.22 2.45c2.39-1.06 3.49-3.85 2.45-6.24z"/>
    <circle cx="436.07" cy="20.27" r="7.58"/>
    <circle cx="471.76" cy="20.27" r="7.58"/>
  </g>
</svg>
