<svg xmlns="http://www.w3.org/2000/svg" width="300" height="100" viewBox="0 0 300 100">
  <g fill="none" stroke="#8F8F8F" stroke-width="4" stroke-miterlimit="10">
    <path d="M86.28 35.15c-6.3-14.484-20.58-23.843-36.373-23.843-17.67 0-32.68 11.465-37.838 27.267L10.13 35.02c-1.11-2.034-3.658-2.784-5.692-1.674-2.034 1.11-2.784 3.657-1.674 5.69l7.528 13.81c.622 1.14 1.738 1.927 3.022 2.132.22.033.44.052.66.052.83 0 1.632-.252 2.32-.71.608-.322 1.137-.77 1.522-1.34l11.78-11.085c1.688-1.587 1.77-4.242.182-5.93-1.588-1.688-4.244-1.768-5.93-.18l-2.725 2.564c4.83-10.963 15.91-18.652 28.783-18.652 12.453 0 23.71 7.38 28.68 18.8.926 2.125 3.396 3.1 5.522 2.173 2.123-.924 3.096-3.395 2.17-5.52zM94.51 61.795l-7.53-13.81c-.62-1.14-1.737-1.928-3.02-2.133-1.017-.164-2.04.07-2.897.61-.644.323-1.202.793-1.605 1.386l-11.78 11.086c-1.688 1.588-1.77 4.24-.182 5.93 1.588 1.686 4.242 1.767 5.93.18l2.726-2.564c-4.828 10.964-15.91 18.654-28.784 18.654-12.453 0-23.71-7.38-28.682-18.802-.925-2.123-3.397-3.094-5.52-2.17-2.124.924-3.096 3.395-2.172 5.52 6.303 14.483 20.582 23.84 36.374 23.84 17.67 0 32.68-11.463 37.838-27.265l1.937 3.553c.76 1.396 2.2 2.188 3.687 2.188.678 0 1.367-.165 2.005-.514 2.033-1.11 2.783-3.657 1.674-5.69z"/>
  </g>
  <g fill="none" stroke="#8F8F8F" stroke-width="4" stroke-miterlimit="10">
    <circle cx="150.097" cy="50.406" r="8.102"/>
    <circle cx="150.097" cy="25.406" r="8.102"/>
    <circle cx="150.097" cy="75.406" r="8.102"/>
  </g>
  <path fill="#8F8F8F" d="M257.884 98.866c-1.498 0-2.658-2.58-3.427-4.29-.217-.482-.415-.922-.6-1.273-2.41-4.59-3.247-4.832-6.808-5.226-.826-.09-1.853-.204-3.12-.416l-.32-.053-.29.145c-1.396.695-2.64 2.913-3.74 4.87-.384.685-.747 1.332-1.017 1.72-1.534 2.19-2.792 2.473-3.716 2.473-1.55 0-3.414-.896-5.773-2.03-3.997-1.922-4.85-2.758-4.06-6.568.098-.48.327-1.212.57-1.99.69-2.204 1.473-4.703 1.007-6.23l-.087-.288-.233-.192c-.924-.76-1.603-1.416-2.2-1.996-1.367-1.324-2.355-2.28-4.324-2.28-.77 0-1.694.148-2.905.47-.584.153-1.24.39-1.937.638-1.282.458-2.734.978-3.76.978-.063 0-.126-.002-.188-.006l-.155-.012-.152.037c-.124.03-.243.045-.363.045-2.226 0-4.24-5.14-5.1-7.333-.144-.37-.27-.695-.384-.963-1.515-3.65.39-5.256 3.887-7.775.68-.49 1.372-.99 2.04-1.523 2.683-2.148 2.426-4.034 2.128-6.218-.1-.74-.214-1.576-.242-2.547l-.01-.295-.167-.243c-.593-.86-1.983-1.397-3.882-2.062-.476-.167-.895-.31-1.16-.433-5.793-2.69-6.29-3.907-4.418-10.838 1.178-4.368 2.992-5.167 6.144-5.167.857 0 1.808.062 2.814.128.92.06 1.896.124 2.925.15l.123.002c2.584 0 3.745-2.042 4.77-3.844.395-.694.803-1.41 1.273-1.99l.195-.24.026-.308c.094-1.114-.72-2.58-1.794-4.38-.284-.477-.554-.928-.684-1.204-2.587-5.505-2.01-5.91 3.51-9.775 1.857-1.3 3.288-1.906 4.503-1.906 1.772 0 3.18 1.322 5.314 3.323.542.51 1.12 1.05 1.748 1.612 1.29 1.148 2.25 1.617 3.322 1.617.726 0 1.394-.225 2.167-.486.622-.21 1.325-.446 2.244-.638 2.343-.49 2.65-2.195 2.923-3.7.07-.392.146-.81.26-1.25l1.67-6.35c.195-.74.793-1.727 3.727-1.727 1.02 0 2.067.116 2.99.218.39.042.75.082 1.067.11 6.166.508 6.444 2.92 7.055 8.207.095.82.195 1.688.326 2.6.4 2.768 2.6 3.55 4.54 4.24.762.27 1.55.55 2.252.943l.28.157.318-.036c1.053-.118 2.244-1.086 3.692-2.34.39-.335.755-.653.988-.818.358-.253.773-.59 1.226-.96 1.204-.984 2.854-2.33 4.003-2.33 2.484.055 6.193 4.654 7.976 6.863.29.358.55.68.778.956 1.615 1.94-1.307 5.98-3.052 8.396-.498.69-.93 1.284-1.236 1.786-.933 1.517-.21 4.745.67 6.492.606 1.205 1.33 1.853 2.152 1.923l6.198.538c.35.03.755.043 1.19.056 1.24.038 2.94.088 3.648.722 1.877 1.68 1.806 7.705 1.77 10.6l-.007.84c-.033 2.565-2.103 3.17-5.477 3.945-2.877.66-6.14 1.41-6.848 4.62-1.02 4.62-.197 5.645 2.556 8.188.48.443 1.028.95 1.642 1.556l.152.15c1.116 1.1 2.644 2.606 2.647 3.94 0 .5-.23.975-.705 1.448-.854.854-1.59 2.07-2.37 3.358-1.393 2.305-2.834 4.688-4.77 4.688-.366 0-.76-.083-1.173-.248l-8.327-3.33c-.284-.114-.597-.17-.932-.17-1.62 0-3.596 1.375-4.836 2.74-.684.75-1.81 2.228-1.67 3.692l.81 8.517c.355 3.747-6.563 4.797-10.28 5.36-.462.07-.882.136-1.242.197-.094.016-.183.024-.27.024zm-10.62-15.188c2.348 0 5.895 0 6.75 1.583l3.124 5.78c.97 1.793 1.555 2.876 3.03 2.876.65 0 1.35-.22 2.51-.582l.605-.188c2.93-.903 2.57-2.907 2.283-4.518-.085-.474-.173-.964-.22-1.5-.037-.422-.104-.9-.174-1.407-.23-1.653-.517-3.71.174-4.84.868-1.42 7.632-6.26 9.16-6.557.178-.034.375-.05.586-.05 1.892 0 4.598 1.35 6.77 2.435.993.495 1.93.963 2.718 1.27l.695.273.46-.59c3.236-4.17 3.52-4.823.23-8.075l-.647-.644c-.296-.295-.672-.625-1.078-.98-1.044-.915-2.475-2.168-2.698-3.188-.364-1.657.442-4.016 1.224-6.296.56-1.633 1.087-3.175 1.243-4.57.12-1.203 1.306-1.642 3.1-2.175.3-.09.592-.176.86-.267.298-.1.902-.24 1.54-.39 2.762-.64 4.77-1.172 5.477-2.185l.192-.276-.015-.335c-.017-.43-.016-.848-.014-1.247.007-2.023.015-4.542-3.244-4.8l-6.93-.548c-1.88-.148-2.43-1.428-3.24-3.677-.245-.684-.5-1.392-.83-2.07-.293-.6-.597-1.163-.89-1.7-1.33-2.46-2.135-3.946-.657-6.378l3.545-5.837c.27-.443.458-1.206-.172-2.325-.728-1.294-2.954-3.435-4.118-3.435h-.32l-.34.207-5.274 3.747c-.22.158-.45.332-.687.512-.88.67-1.877 1.43-2.74 1.43-.3 0-.588-.095-.877-.29-.86-.546-2.122-1.02-3.583-1.568-2.39-.896-5.998-2.25-6.226-3.764l-.023-.152-.067-.138c-.776-1.59-.935-4.054-1.074-6.228-.07-1.088-.136-2.115-.27-3.04-.152-1.048-1.313-1.674-3.105-1.674-2.09 0-4.422.826-4.924 2.67l-1.853 6.79c-.56 2.053-6.09 4.39-10.38 4.39-1.32 0-2.354-.247-2.837-.68l-5.974-5.352c-.234-.21-.647-.46-1.283-.46-1.896 0-4.657 2.368-5.268 3.328-.36.568-.285 1.01-.158 1.28.237.5.6 1.14 1.02 1.88 1.377 2.427 3.94 6.946 2.522 8.513-.71.78-1.43 1.996-2.193 3.283-1.426 2.407-3.2 5.403-4.924 5.403l-6.65-.19c-.5-.016-.893-.027-1.23-.027-2.672 0-2.96 1.123-3.587 3.584l-.143.552c-.76 2.943 1.073 3.578 2.545 4.088.43.15.874.303 1.343.515.422.19.95.383 1.52.593 1.484.544 3.518 1.29 4.107 2.304.89 1.525 1.525 8.89 1.236 10.954l-.013.09.004.09c.07 1.842-3.7 4.346-5.95 5.842-.8.53-1.49.988-1.987 1.382-.367.292-.905 1-.39 2.48.553 1.585 2.352 3.932 4.455 3.932.247 0 .49-.033.726-.1l6.726-1.884c.118-.033.254-.05.403-.05 1.793 0 5.026 2.24 7.36 5.1 1.814 2.22 2.295 3.818 2.14 4.573l-1.63 7.985c-.082.397-.063 1.013.492 1.692 1.158 1.42 4.25 2.5 5.355 2.5.606 0 .924-.273 1.084-.5.327-.47.72-1.135 1.172-1.905 1.34-2.278 3.835-6.52 5.768-6.52.078 0 .157.008.234.023.968.208 2.225.226 3.646.226l.75.002z"/>
  <circle fill="none" stroke="#8F8F8F" stroke-width="4" stroke-miterlimit="10" cx="250.298" cy="51.282" r="15.523"/>
</svg>
